<?xml version="1.0" encoding="UTF-8" standalone="no"?>
<!-- Created with Inkscape (http://www.inkscape.org/) -->

<svg
   xmlns:dc="http://purl.org/dc/elements/1.1/"
   xmlns:cc="http://creativecommons.org/ns#"
   xmlns:rdf="http://www.w3.org/1999/02/22-rdf-syntax-ns#"
   xmlns:svg="http://www.w3.org/2000/svg"
   xmlns="http://www.w3.org/2000/svg"
   xmlns:xlink="http://www.w3.org/1999/xlink"
   xmlns:sodipodi="http://sodipodi.sourceforge.net/DTD/sodipodi-0.dtd"
   xmlns:inkscape="http://www.inkscape.org/namespaces/inkscape"
   width="990"
   height="765"
   id="svg2"
   version="1.1"
   inkscape:version="0.48.2 r9819"
   sodipodi:docname="poster.svg"
   inkscape:export-filename="/home/novalis/notes/puzzles/119/posters/Posters/cheney.pdf.png"
   inkscape:export-xdpi="97.82"
   inkscape:export-ydpi="97.82">
  <defs
     id="defs4" />
  <sodipodi:namedview
     id="base"
     pagecolor="#ffffff"
     bordercolor="#666666"
     borderopacity="1.0"
     inkscape:pageopacity="1"
     inkscape:pageshadow="2"
     inkscape:zoom="0.7"
     inkscape:cx="448.65942"
     inkscape:cy="378.5083"
     inkscape:document-units="px"
     inkscape:current-layer="layer1"
     showgrid="false"
     inkscape:window-width="1600"
     inkscape:window-height="812"
     inkscape:window-x="0"
     inkscape:window-y="33"
     inkscape:window-maximized="1" />
  <metadata
     id="metadata7">
    <rdf:RDF>
      <cc:Work
         rdf:about="">
        <dc:format>image/svg+xml</dc:format>
        <dc:type
           rdf:resource="http://purl.org/dc/dcmitype/StillImage" />
        <dc:title />
      </cc:Work>
    </rdf:RDF>
  </metadata>
  <g
     inkscape:label="Layer 1"
     inkscape:groupmode="layer"
     id="layer1"
     transform="translate(0,-287.36218)">
    <image
       y="304.20609"
       x="769.2522"
       id="image4053"
       xlink:href="file:///home/novalis/notes/puzzles/119/posters/Posters/earth-clipart.png"
       height="193.92389"
       width="201.85715" />
    <flowRoot
       xml:space="preserve"
       id="flowRoot2989"
       style="font-size:48px;font-style:normal;font-variant:normal;font-weight:normal;font-stretch:normal;text-indent:0;text-align:start;text-decoration:none;line-height:100%;letter-spacing:normal;word-spacing:normal;text-transform:none;direction:ltr;block-progression:tb;writing-mode:lr-tb;text-anchor:start;color:#000000;fill:#f500e1;fill-opacity:1;fill-rule:evenodd;stroke:#000000;stroke-width:1;stroke-linecap:butt;stroke-linejoin:miter;stroke-miterlimit:10;stroke-opacity:1;stroke-dasharray:none;stroke-dashoffset:0;marker:none;visibility:visible;display:inline;overflow:visible;enable-background:accumulate;font-family:Bitstream Charter;-inkscape-font-specification:Bitstream Charter"><flowRegion
         id="flowRegion2991"><rect
           id="rect2993"
           width="20"
           height="197.14285"
           x="97.14286"
           y="78.076469" /></flowRegion><flowPara
         id="flowPara2995" /></flowRoot>    <text
       xml:space="preserve"
       style="font-size:24px;font-style:italic;font-variant:normal;font-weight:normal;font-stretch:normal;text-indent:0;text-align:start;text-decoration:none;line-height:100%;letter-spacing:normal;word-spacing:normal;text-transform:none;direction:ltr;block-progression:tb;writing-mode:lr-tb;text-anchor:start;color:#000000;fill:#000000;fill-opacity:1;fill-rule:evenodd;stroke:none;stroke-width:1;marker:none;visibility:visible;display:inline;overflow:visible;enable-background:accumulate;font-family:Bitstream Charter;-inkscape-font-specification:Bitstream Charter Italic"
       x="617.47809"
       y="815.75879"
       id="text3785"
       sodipodi:linespacing="100%"><tspan
         sodipodi:role="line"
         id="tspan3789"
         x="617.47809"
         y="815.75879">Sosnowiec and Stallman, LLC is a </tspan><tspan
         sodipodi:role="line"
         id="tspan3791"
         x="617.47809"
         y="839.75879">startup focusing on GIS solutions, </tspan><tspan
         sodipodi:role="line"
         id="tspan3793"
         x="617.47809"
         y="863.75879">including a revolutionary </tspan><tspan
         sodipodi:role="line"
         id="tspan3795"
         x="617.47809"
         y="887.75879">massively parallel problem </tspan><tspan
         sodipodi:role="line"
         id="tspan3797"
         x="617.47809"
         y="911.75879">solving approach to coordinate </tspan><tspan
         sodipodi:role="line"
         id="tspan3799"
         x="617.47809"
         y="935.75879">mapping. We offer a competitive </tspan><tspan
         sodipodi:role="line"
         id="tspan3801"
         x="617.47809"
         y="959.75879">salary and excellent benefits.</tspan></text>
    <image
       y="588.04742"
       x="3.1930029"
       id="image3919"
       xlink:href="file:///home/novalis/notes/puzzles/119/posters/Posters/gis-clipart.jpg"
       height="468"
       width="430" />
    <g
       style="font-size:48px;font-style:normal;font-variant:normal;font-weight:bold;font-stretch:normal;text-indent:0;text-align:start;text-decoration:none;line-height:100%;letter-spacing:normal;word-spacing:normal;text-transform:none;direction:ltr;block-progression:tb;writing-mode:lr-tb;text-anchor:start;color:#000000;fill:#000000;fill-opacity:1;fill-rule:evenodd;stroke:none;stroke-width:1;marker:none;visibility:visible;display:inline;overflow:visible;enable-background:accumulate;font-family:Bitstream Charter;-inkscape-font-specification:Bitstream Charter Bold"
       id="text2985">
      <path
         d="m 24.798802,437.34415 4.656,0 7.296,-24.576 7.44,24.576 4.656,0 7.344,-29.184 3.024,-0.672 0,-2.352 -10.464,0 0,2.352 3.168,0.576 0.576,0.672 -5.04,20.16 -7.104,-23.76 -4.848,0 -6.912,23.232 -5.376,-19.92 0.384,-0.672 2.976,-0.336 0,-2.304 -12.576,0 0,2.352 3.024,0.672 7.776,29.184"
         style="marker:none"
         id="path3220" />
      <path
         d="m 82.845802,431.39215 c -2.783997,1.77599 -5.376002,2.64 -7.92,2.64 -4.751995,0 -7.728,-3.26401 -7.728,-8.784 0,-0.048 0,-0.096 0,-0.144 l 15.696,0 c 0,-0.288 0,-0.624 0,-0.912 0,-6.912 -3.696006,-10.848 -9.984,-10.848 -6.911993,0 -11.856,5.04 -11.856,12.384 0,7.24799 4.704008,12.048 11.856,12.048 3.359997,0 6.720004,-0.96001 9.936,-2.832 l 0,-3.552 m -6.24,-8.832 -9.168,0 c 0.144,-4.176 2.112003,-6.576 4.992,-6.576 2.639998,0 4.176,2.064 4.176,6.048 0,0.192 0,0.336 0,0.528"
         style="marker:none"
         id="path3222" />
      <path
         d="m 114.83555,434.60815 0.624,2.736 8.544,0 0,-2.112 -2.544,-0.24 -0.624,-0.672 0,-12.432 c 0,-6.144 -2.256,-8.496 -8.976,-8.496 -6.33599,0 -10.464,2.832 -10.464,5.568 0,1.296 0.768,1.776 2.208,1.776 l 4.416,0 0,-4.512 c 0.864,-0.192 1.584,-0.288 2.304,-0.288 3.168,0 4.56,1.536 4.56,4.992 l 0,1.44 c -10.03199,2.25599 -14.592,3.648 -14.592,9.168 0,3.64799 2.59201,6.24 6.288,6.24 2.592,0 5.18401,-1.10401 8.256,-3.168 m 0,-1.968 c -1.872,0.96 -3.408,1.44 -4.656,1.44 -2.208,0 -3.552,-1.39201 -3.552,-3.6 0,-3.168 2.54401,-4.416 8.208,-5.664 l 0,7.824"
         style="marker:none"
         id="path3224" />
      <path
         d="m 125.9198,437.34415 13.248,0 0,-2.16 -3.408,-0.192 -0.72,-0.72 0,-13.776 c 1.488,-0.912 2.64,-1.344 3.408,-1.344 1.392,0 2.4,0.528 3.12,1.728 l 2.496,0 0.624,-6.624 c -1.056,-0.528 -2.112,-0.816 -3.168,-0.816 -0.336,0 -0.72,0.048 -1.056,0.096 -1.968,1.392 -3.888,3.024 -5.616,4.896 l 0.192,-4.896 -2.304,0 -7.056,2.256 0,1.92 3.456,0 0,16.56 -0.672,0.72 -2.544,0.192 0,2.16"
         style="marker:none"
         id="path3226" />
      <path
         d="m 168.3458,431.39215 c -2.78399,1.77599 -5.376,2.64 -7.92,2.64 -4.75199,0 -7.728,-3.26401 -7.728,-8.784 0,-0.048 0,-0.096 0,-0.144 l 15.696,0 c 0,-0.288 0,-0.624 0,-0.912 0,-6.912 -3.696,-10.848 -9.984,-10.848 -6.91199,0 -11.856,5.04 -11.856,12.384 0,7.24799 4.70401,12.048 11.856,12.048 3.36,0 6.72001,-0.96001 9.936,-2.832 l 0,-3.552 m -6.24,-8.832 -9.168,0 c 0.144,-4.176 2.11201,-6.576 4.992,-6.576 2.64,0 4.176,2.064 4.176,6.048 0,0.192 0,0.336 0,0.528"
         style="marker:none"
         id="path3228" />
      <path
         d="m 184.97555,437.34415 12.864,0 0,-2.112 -2.784,-0.288 -0.72,-0.768 0,-32.304 -2.112,0 -7.248,2.304 0,1.872 3.456,0 0,28.224 -0.672,0.672 -2.784,0.288 0,2.112"
         style="marker:none"
         id="path3230" />
      <path
         d="m 212.70455,413.39215 c -7.53599,0 -12.432,4.896 -12.432,12.288 0,7.24799 4.84801,12.048 12.048,12.048 7.58399,0 12.432,-4.84801 12.432,-11.952 0,-7.632 -4.704,-12.384 -12.048,-12.384 m -0.192,2.544 c 3.408,0 5.616,3.408 5.616,9.696 0,6.23999 -2.112,9.552 -5.664,9.552 -3.35999,0 -5.52,-3.40801 -5.52,-9.696 0,-6.192 2.16001,-9.552 5.568,-9.552"
         style="marker:none"
         id="path3232" />
      <path
         d="m 240.3608,413.39215 c -7.53599,0 -12.432,4.896 -12.432,12.288 0,7.24799 4.84801,12.048 12.048,12.048 7.58399,0 12.432,-4.84801 12.432,-11.952 0,-7.632 -4.704,-12.384 -12.048,-12.384 m -0.192,2.544 c 3.408,0 5.616,3.408 5.616,9.696 0,6.23999 -2.112,9.552 -5.664,9.552 -3.35999,0 -5.52,-3.40801 -5.52,-9.696 0,-6.192 2.16001,-9.552 5.568,-9.552"
         style="marker:none"
         id="path3234" />
      <path
         d="m 255.00905,437.34415 12.096,0 0,-2.112 -2.4,-0.192 -0.624,-0.672 0,-7.872 2.352,0 5.568,8.976 0,1.872 9.216,0 0,-2.112 -2.832,-0.24 -7.632,-12.384 5.472,-6.096 3.12,-0.384 0,-2.112 -9.792,0 0,2.112 2.112,0.24 0.336,0.528 -6.864,8.016 -1.056,0 0,-23.04 -2.016,0 -7.392,2.256 0,1.872 3.504,0 0,28.272 -0.672,0.72 -2.496,0.24 0,2.112"
         style="marker:none"
         id="path3236" />
      <path
         d="m 288.1163,402.59215 c -1.968,0 -3.456,1.536 -3.456,3.6 0,2.11199 1.584,3.552 3.504,3.552 2.016,0 3.552,-1.48801 3.552,-3.648 0,-1.968 -1.44,-3.504 -3.6,-3.504 m 0.528,10.944 -6.768,2.256 0,1.92 3.168,0 0,16.56 -0.672,0.72 -2.592,0.192 0,2.16 12.576,0 0,-2.16 -2.688,-0.192 -0.72,-0.72 0,-20.736 -2.304,0"
         style="marker:none"
         id="path3238" />
      <path
         d="m 296.4533,437.34415 11.856,0 0,-2.16 -2.112,-0.192 -0.672,-0.72 0,-15.84 c 1.824,-0.528 3.36,-0.816 4.56,-0.816 3.024,0 4.32,1.632 4.32,5.184 l 0,11.472 -0.672,0.72 -2.064,0.192 0,2.16 11.76,0 0,-2.16 -2.544,-0.192 -0.624,-0.72 0,-12.864 c 0,-5.328 -2.112,-7.968 -6.528,-7.968 -2.112,0 -4.8,1.056 -8.208,2.928 l 0,-2.832 -2.304,0 -6.912,2.256 0,1.92 3.264,0 0,16.56 -0.672,0.72 -2.448,0.192 0,2.16"
         style="marker:none"
         id="path3240" />
      <path
         d="m 343.5638,414.88015 c -2.352,-0.96 -4.56,-1.392 -6.624,-1.392 -6.38399,0 -10.272,3.36 -10.272,8.256 0,3.45599 2.06401,6.096 5.952,7.2 -1.776,1.584 -2.64,2.976 -2.64,4.56 0,0.672 0.192,1.488 0.624,2.4 -3.07199,0.288 -4.944,2.304 -4.944,5.28 0,3.93599 3.60001,6.576 9.936,6.576 7.72799,0 12.912,-3.98401 12.912,-8.496 0,-4.08 -3.552,-5.52 -10.512,-6.528 l -3.264,-0.432 c -0.096,-0.48 -0.144,-0.912 -0.144,-1.296 0,-0.576 0.144,-1.152 0.384,-1.776 0.48,0.048 0.96,0.048 1.392,0.048 6.336,0 10.176,-3.36001 10.176,-7.968 0,-1.248 -0.336,-2.448 -1.056,-3.696 l 5.184,0 0,-2.736 -7.104,0 m -6.72,0.864 c 2.112,0 3.792,2.064 3.792,5.52 0,3.64799 -1.632,5.856 -3.888,5.856 -2.304,0 -3.936,-2.16001 -3.936,-5.808 0,-3.504 1.632,-5.568 4.032,-5.568 m -3.312,20.688 4.08,0.672 c 3.408,0.576 5.184,1.248 5.184,3.6 0,2.44799 -2.256,4.512 -5.712,4.512 -3.21599,0 -5.568,-2.20801 -5.568,-4.8 0,-1.536 0.672,-2.88 2.016,-3.984"
         style="marker:none"
         id="path3242" />
      <path
         d="m 365.92205,437.34415 12.96,0 0,-2.208 -3.216,-0.24 -0.768,-0.72 0,-16.704 6.432,0 0,-2.88 -6.432,0 0,-2.88 c 0,-0.144 0,-0.288 0,-0.384 0,-3.552 0.624,-6 1.872,-7.296 l 4.656,4.128 c 1.824,-0.624 2.784,-1.68 2.784,-2.976 0,-2.064 -1.728,-3.504 -4.512,-3.504 -1.968,0 -4.032,0.672 -5.808,2.016 -3.31199,2.44799 -4.896,5.904 -4.896,10.512 l -3.12,1.44 0,1.824 3.12,0 0,16.656 -0.672,0.768 -2.4,0.24 0,2.208"
         style="marker:none"
         id="path3244" />
      <path
         d="m 395.0483,413.39215 c -7.53599,0 -12.432,4.896 -12.432,12.288 0,7.24799 4.84801,12.048 12.048,12.048 7.58399,0 12.432,-4.84801 12.432,-11.952 0,-7.632 -4.704,-12.384 -12.048,-12.384 m -0.192,2.544 c 3.408,0 5.616,3.408 5.616,9.696 0,6.23999 -2.112,9.552 -5.664,9.552 -3.35999,0 -5.52,-3.40801 -5.52,-9.696 0,-6.192 2.16001,-9.552 5.568,-9.552"
         style="marker:none"
         id="path3246" />
      <path
         d="m 409.88855,437.34415 13.248,0 0,-2.16 -3.408,-0.192 -0.72,-0.72 0,-13.776 c 1.488,-0.912 2.64,-1.344 3.408,-1.344 1.392,0 2.4,0.528 3.12,1.728 l 2.496,0 0.624,-6.624 c -1.056,-0.528 -2.112,-0.816 -3.168,-0.816 -0.336,0 -0.72,0.048 -1.056,0.096 -1.968,1.392 -3.888,3.024 -5.616,4.896 l 0.192,-4.896 -2.304,0 -7.056,2.256 0,1.92 3.456,0 0,16.56 -0.672,0.72 -2.544,0.192 0,2.16"
         style="marker:none"
         id="path3248" />
      <path
         d="m 446.7473,417.47215 0,13.968 c 0,2.44799 0.048,3.984 1.728,5.088 1.104,0.768 2.4,1.056 3.984,1.056 1.968,0 4.46401,-0.48 7.344,-1.536 l 0,-2.304 c -0.96,0.24 -1.968,0.336 -3.12,0.336 -3.16799,0 -3.984,-1.24801 -3.984,-4.656 l 0,-11.952 7.104,0 0,-2.88 -7.104,0 0,-5.952 -3.024,0 -2.496,4.992 -3.552,2.016 0,1.824 3.12,0"
         style="marker:none"
         id="path3250" />
      <path
         d="m 476.33555,434.60815 0.624,2.736 8.544,0 0,-2.112 -2.544,-0.24 -0.624,-0.672 0,-12.432 c 0,-6.144 -2.256,-8.496 -8.976,-8.496 -6.33599,0 -10.464,2.832 -10.464,5.568 0,1.296 0.768,1.776 2.208,1.776 l 4.416,0 0,-4.512 c 0.864,-0.192 1.584,-0.288 2.304,-0.288 3.168,0 4.56,1.536 4.56,4.992 l 0,1.44 c -10.03199,2.25599 -14.592,3.648 -14.592,9.168 0,3.64799 2.59201,6.24 6.288,6.24 2.592,0 5.18401,-1.10401 8.256,-3.168 m 0,-1.968 c -1.872,0.96 -3.408,1.44 -4.656,1.44 -2.208,0 -3.552,-1.39201 -3.552,-3.6 0,-3.168 2.54401,-4.416 8.208,-5.664 l 0,7.824"
         style="marker:none"
         id="path3252" />
      <path
         d="m 487.1318,437.34415 12.864,0 0,-2.112 -2.784,-0.288 -0.72,-0.768 0,-32.304 -2.112,0 -7.248,2.304 0,1.872 3.456,0 0,28.224 -0.672,0.672 -2.784,0.288 0,2.112"
         style="marker:none"
         id="path3254" />
      <path
         d="m 524.2208,431.39215 c -2.78399,1.77599 -5.376,2.64 -7.92,2.64 -4.75199,0 -7.728,-3.26401 -7.728,-8.784 0,-0.048 0,-0.096 0,-0.144 l 15.696,0 c 0,-0.288 0,-0.624 0,-0.912 0,-6.912 -3.696,-10.848 -9.984,-10.848 -6.91199,0 -11.856,5.04 -11.856,12.384 0,7.24799 4.70401,12.048 11.856,12.048 3.36,0 6.72001,-0.96001 9.936,-2.832 l 0,-3.552 m -6.24,-8.832 -9.168,0 c 0.144,-4.176 2.11201,-6.576 4.992,-6.576 2.64,0 4.176,2.064 4.176,6.048 0,0.192 0,0.336 0,0.528"
         style="marker:none"
         id="path3256" />
      <path
         d="m 527.2658,437.34415 11.856,0 0,-2.16 -2.112,-0.192 -0.672,-0.72 0,-15.84 c 1.824,-0.528 3.36,-0.816 4.56,-0.816 3.024,0 4.32,1.632 4.32,5.184 l 0,11.472 -0.672,0.72 -2.064,0.192 0,2.16 11.76,0 0,-2.16 -2.544,-0.192 -0.624,-0.72 0,-12.864 c 0,-5.328 -2.112,-7.968 -6.528,-7.968 -2.112,0 -4.8,1.056 -8.208,2.928 l 0,-2.832 -2.304,0 -6.912,2.256 0,1.92 3.264,0 0,16.56 -0.672,0.72 -2.448,0.192 0,2.16"
         style="marker:none"
         id="path3258" />
      <path
         d="m 558.8723,417.47215 0,13.968 c 0,2.44799 0.048,3.984 1.728,5.088 1.104,0.768 2.4,1.056 3.984,1.056 1.968,0 4.46401,-0.48 7.344,-1.536 l 0,-2.304 c -0.96,0.24 -1.968,0.336 -3.12,0.336 -3.16799,0 -3.984,-1.24801 -3.984,-4.656 l 0,-11.952 7.104,0 0,-2.88 -7.104,0 0,-5.952 -3.024,0 -2.496,4.992 -3.552,2.016 0,1.824 3.12,0"
         style="marker:none"
         id="path3260" />
      <path
         d="m 595.56455,431.39215 c -2.78399,1.77599 -5.376,2.64 -7.92,2.64 -4.75199,0 -7.728,-3.26401 -7.728,-8.784 0,-0.048 0,-0.096 0,-0.144 l 15.696,0 c 0,-0.288 0,-0.624 0,-0.912 0,-6.912 -3.696,-10.848 -9.984,-10.848 -6.91199,0 -11.856,5.04 -11.856,12.384 0,7.24799 4.70401,12.048 11.856,12.048 3.36,0 6.72001,-0.96001 9.936,-2.832 l 0,-3.552 m -6.24,-8.832 -9.168,0 c 0.144,-4.176 2.11201,-6.576 4.992,-6.576 2.64,0 4.176,2.064 4.176,6.048 0,0.192 0,0.336 0,0.528"
         style="marker:none"
         id="path3262" />
      <path
         d="m 615.79355,406.04815 0,7.776 c -1.728,-0.336 -3.216,-0.48 -4.512,-0.48 -7.29599,0 -12.384,5.136 -12.384,12.864 0,6.91199 3.93601,11.568 9.312,11.568 2.448,0 4.84801,-1.10401 7.584,-3.12 l 0,2.688 8.976,0 0,-2.112 -2.448,-0.192 -0.672,-0.768 0,-32.4 -2.208,0 -7.152,2.256 0,1.92 3.504,0 m 0,26.736 c -1.536,0.576 -2.88,0.912 -4.032,0.912 -3.98399,0 -6.432,-3.12001 -6.432,-8.496 0,-5.712 2.83201,-9.168 6.912,-9.168 1.008,0 2.16,0.24 3.552,0.72 l 0,16.032"
         style="marker:none"
         id="path3264" />
      <path
         d="m 13.710802,462.01615 0,2.064 2.88,0.432 8.544,21.408 c -1.199998,2.87999 -2.496001,4.848 -3.744,5.856 l -4.176,-2.88 c -1.583998,0.816 -2.496,2.016 -2.496,3.408 0,1.82399 1.776003,3.552 4.128,3.552 3.167997,0 6.576003,-3.16801 8.928,-8.832 l 9.264,-22.512 2.592,-0.432 0,-2.064 -9.216,0 0,2.064 2.544,0.288 0.432,0.72 -5.232,13.536 -5.184,-13.584 0.48,-0.672 2.448,-0.288 0,-2.064 -12.192,0"
         style="marker:none"
         id="path3266" />
      <path
         d="m 52.860802,461.39215 c -7.535992,0 -12.432,4.896 -12.432,12.288 0,7.24799 4.848008,12.048 12.048,12.048 7.583993,0 12.432,-4.84801 12.432,-11.952 0,-7.632 -4.704007,-12.384 -12.048,-12.384 m -0.192,2.544 c 3.407997,0 5.616,3.408 5.616,9.696 0,6.23999 -2.112003,9.552 -5.664,9.552 -3.359996,0 -5.52,-3.40801 -5.52,-9.696 0,-6.192 2.160004,-9.552 5.568,-9.552"
         style="marker:none"
         id="path3268" />
      <path
         d="m 74.181052,461.39215 -6.768,2.304 0,1.872 3.12,0 0,12 c 0,5.51999 2.112005,8.208 6.576,8.208 2.543998,0 5.040003,-1.10401 8.064,-3.072 l 0,2.64 9.072,0 0,-2.16 -2.496,-0.192 -0.672,-0.72 0,-20.88 -2.208,0 -6.816,2.304 0,1.872 3.12,0 0,15.312 c -1.583998,0.48 -2.928001,0.768 -4.128,0.768 -3.311996,0 -4.56,-1.63201 -4.56,-5.376 l 0,-14.88 -2.304,0"
         style="marker:none"
         id="path3270" />
      <path
         d="m 96.578302,485.34415 11.855998,0 0,-2.16 -2.112,-0.192 -0.672,-0.72 0,-15.84 c 1.824,-0.528 3.36,-0.816 4.56,-0.816 3.024,0 4.32,1.632 4.32,5.184 l 0,11.472 -0.672,0.72 -2.064,0.192 0,2.16 11.76,0 0,-2.16 -2.544,-0.192 -0.624,-0.72 0,-12.864 c 0,-5.328 -2.112,-7.968 -6.528,-7.968 -2.112,0 -4.8,1.056 -8.208,2.928 l 0,-2.832 -2.304,0 -6.911998,2.256 0,1.92 3.264,0 0,16.56 -0.672,0.72 -2.448,0.192 0,2.16"
         style="marker:none"
         id="path3272" />
      <path
         d="m 143.6888,462.88015 c -2.352,-0.96 -4.56,-1.392 -6.624,-1.392 -6.38399,0 -10.272,3.36 -10.272,8.256 0,3.45599 2.06401,6.096 5.952,7.2 -1.776,1.584 -2.64,2.976 -2.64,4.56 0,0.672 0.192,1.488 0.624,2.4 -3.07199,0.288 -4.944,2.304 -4.944,5.28 0,3.93599 3.60001,6.576 9.936,6.576 7.72799,0 12.912,-3.98401 12.912,-8.496 0,-4.08 -3.552,-5.52 -10.512,-6.528 l -3.264,-0.432 c -0.096,-0.48 -0.144,-0.912 -0.144,-1.296 0,-0.576 0.144,-1.152 0.384,-1.776 0.48,0.048 0.96,0.048 1.392,0.048 6.336,0 10.176,-3.36001 10.176,-7.968 0,-1.248 -0.336,-2.448 -1.056,-3.696 l 5.184,0 0,-2.736 -7.104,0 m -6.72,0.864 c 2.112,0 3.792,2.064 3.792,5.52 0,3.64799 -1.632,5.856 -3.888,5.856 -2.304,0 -3.936,-2.16001 -3.936,-5.808 0,-3.504 1.632,-5.568 4.032,-5.568 m -3.312,20.688 4.08,0.672 c 3.408,0.576 5.184,1.248 5.184,3.6 0,2.44799 -2.256,4.512 -5.712,4.512 -3.21599,0 -5.568,-2.20801 -5.568,-4.8 0,-1.536 0.672,-2.88 2.016,-3.984"
         style="marker:none"
         id="path3274" />
      <path
         d="m 188.12705,479.39215 c -2.78399,1.77599 -5.376,2.64 -7.92,2.64 -4.75199,0 -7.728,-3.26401 -7.728,-8.784 0,-0.048 0,-0.096 0,-0.144 l 15.696,0 c 0,-0.288 0,-0.624 0,-0.912 0,-6.912 -3.696,-10.848 -9.984,-10.848 -6.91199,0 -11.856,5.04 -11.856,12.384 0,7.24799 4.70401,12.048 11.856,12.048 3.36,0 6.72001,-0.96001 9.936,-2.832 l 0,-3.552 m -6.24,-8.832 -9.168,0 c 0.144,-4.176 2.11201,-6.576 4.992,-6.576 2.64,0 4.176,2.064 4.176,6.048 0,0.192 0,0.336 0,0.528"
         style="marker:none"
         id="path3276" />
      <path
         d="m 213.73205,464.70415 c -1.296,-2.208 -3.216,-3.36 -5.616,-3.36 -2.112,0 -4.608,1.104 -7.872,3.024 l 0,-2.832 -2.304,0 -6.768,2.256 0,1.92 3.12,0 0,16.56 -0.672,0.72 -2.448,0.192 0,2.16 11.76,0 0,-2.16 -2.016,-0.192 -0.672,-0.72 0,-15.84 c 1.536,-0.576 2.88,-0.864 4.032,-0.864 3.072,0 4.32,1.584 4.32,4.944 l 0,11.664 -0.672,0.816 -1.968,0.192 0,2.16 11.328,0 0,-2.112 -2.16,-0.24 -0.672,-0.72 0,-15.744 c 1.584,-0.576 2.928,-0.912 4.128,-0.912 3.168,0 4.416,1.584 4.416,5.184 l 0,11.472 -0.672,0.72 -2.064,0.192 0,2.16 11.808,0 0,-2.16 -2.544,-0.192 -0.624,-0.72 0,-12.864 c 0,-5.328 -2.208,-7.968 -6.672,-7.968 -1.776,0 -4.656,1.056 -8.496,3.264"
         style="marker:none"
         id="path3278" />
      <path
         d="m 233.6318,495.85615 12.816,0 0.048,-2.208 -3.024,-0.192 -0.72,-0.672 0,-7.68 c 1.584,0.192 2.88,0.288 3.936,0.288 7.77599,0 12.72,-4.99201 12.72,-12.672 0,-6.72 -3.984,-11.328 -9.072,-11.328 -2.352,0 -4.752,1.056 -7.584,3.024 l 0,-2.88 -2.16,0 -7.008,2.256 0,1.92 3.312,0 0,26.976 -0.672,0.72 -2.592,0.24 0,2.208 m 9.12,-13.392 0,-16.032 c 1.44,-0.576 2.688,-0.912 3.792,-0.912 3.888,0 6.336,2.88 6.336,8.016 0,5.75999 -2.832,9.264 -7.056,9.264 -0.96,0 -1.968,-0.096 -3.072,-0.336"
         style="marker:none"
         id="path3280" />
      <path
         d="m 262.03805,485.34415 12.864,0 0,-2.112 -2.784,-0.288 -0.72,-0.768 0,-32.304 -2.112,0 -7.248,2.304 0,1.872 3.456,0 0,28.224 -0.672,0.672 -2.784,0.288 0,2.112"
         style="marker:none"
         id="path3282" />
      <path
         d="m 289.76705,461.39215 c -7.53599,0 -12.432,4.896 -12.432,12.288 0,7.24799 4.84801,12.048 12.048,12.048 7.58399,0 12.432,-4.84801 12.432,-11.952 0,-7.632 -4.704,-12.384 -12.048,-12.384 m -0.192,2.544 c 3.408,0 5.616,3.408 5.616,9.696 0,6.23999 -2.112,9.552 -5.664,9.552 -3.35999,0 -5.52,-3.40801 -5.52,-9.696 0,-6.192 2.16001,-9.552 5.568,-9.552"
         style="marker:none"
         id="path3284" />
      <path
         d="m 303.0233,462.01615 0,2.064 2.88,0.432 8.544,21.408 c -1.2,2.87999 -2.496,4.848 -3.744,5.856 l -4.176,-2.88 c -1.584,0.816 -2.496,2.016 -2.496,3.408 0,1.82399 1.776,3.552 4.128,3.552 3.168,0 6.576,-3.16801 8.928,-8.832 l 9.264,-22.512 2.592,-0.432 0,-2.064 -9.216,0 0,2.064 2.544,0.288 0.432,0.72 -5.232,13.536 -5.184,-13.584 0.48,-0.672 2.448,-0.288 0,-2.064 -12.192,0"
         style="marker:none"
         id="path3286" />
      <path
         d="m 351.5333,479.39215 c -2.78399,1.77599 -5.376,2.64 -7.92,2.64 -4.75199,0 -7.728,-3.26401 -7.728,-8.784 0,-0.048 0,-0.096 0,-0.144 l 15.696,0 c 0,-0.288 0,-0.624 0,-0.912 0,-6.912 -3.696,-10.848 -9.984,-10.848 -6.91199,0 -11.856,5.04 -11.856,12.384 0,7.24799 4.70401,12.048 11.856,12.048 3.36,0 6.72001,-0.96001 9.936,-2.832 l 0,-3.552 m -6.24,-8.832 -9.168,0 c 0.144,-4.176 2.11201,-6.576 4.992,-6.576 2.64,0 4.176,2.064 4.176,6.048 0,0.192 0,0.336 0,0.528"
         style="marker:none"
         id="path3288" />
      <path
         d="m 376.6583,479.39215 c -2.78399,1.77599 -5.376,2.64 -7.92,2.64 -4.75199,0 -7.728,-3.26401 -7.728,-8.784 0,-0.048 0,-0.096 0,-0.144 l 15.696,0 c 0,-0.288 0,-0.624 0,-0.912 0,-6.912 -3.696,-10.848 -9.984,-10.848 -6.91199,0 -11.856,5.04 -11.856,12.384 0,7.24799 4.70401,12.048 11.856,12.048 3.36,0 6.72001,-0.96001 9.936,-2.832 l 0,-3.552 m -6.24,-8.832 -9.168,0 c 0.144,-4.176 2.11201,-6.576 4.992,-6.576 2.64,0 4.176,2.064 4.176,6.048 0,0.192 0,0.336 0,0.528"
         style="marker:none"
         id="path3290" />
      <path
         d="m 397.1753,462.54415 c -2.448,-0.816 -4.848,-1.2 -7.248,-1.2 -5.90399,0 -9.408,3.024 -9.408,7.152 0,2.87999 1.82401,4.56 5.376,6.336 3.744,1.87199 6.336,2.352 6.336,4.944 0,2.11199 -1.488,3.456 -4.08,3.456 -1.44,0 -2.784,-0.336 -4.032,-1.008 l -0.48,-0.528 -0.528,-4.128 -2.928,0 0,7.104 c 2.976,0.816 5.616,1.2 7.92,1.2 6.192,0 9.792,-3.07201 9.792,-7.92 0,-3.456 -2.736,-4.75201 -7.008,-6.816 -2.83199,-1.392 -4.464,-2.20801 -4.464,-4.224 0,-1.776 1.296,-2.88 3.648,-2.88 1.104,0 2.16,0.288 3.168,0.768 l 0.576,0.528 0.48,3.6 2.88,0 0,-6.384"
         style="marker:none"
         id="path3292" />
      <path
         d="m 417.6848,465.47215 0,13.968 c 0,2.44799 0.048,3.984 1.728,5.088 1.104,0.768 2.4,1.056 3.984,1.056 1.968,0 4.46401,-0.48 7.344,-1.536 l 0,-2.304 c -0.96,0.24 -1.968,0.336 -3.12,0.336 -3.16799,0 -3.984,-1.24801 -3.984,-4.656 l 0,-11.952 7.104,0 0,-2.88 -7.104,0 0,-5.952 -3.024,0 -2.496,4.992 -3.552,2.016 0,1.824 3.12,0"
         style="marker:none"
         id="path3294" />
      <path
         d="m 445.01705,461.39215 c -7.53599,0 -12.432,4.896 -12.432,12.288 0,7.24799 4.84801,12.048 12.048,12.048 7.58399,0 12.432,-4.84801 12.432,-11.952 0,-7.632 -4.704,-12.384 -12.048,-12.384 m -0.192,2.544 c 3.408,0 5.616,3.408 5.616,9.696 0,6.23999 -2.112,9.552 -5.664,9.552 -3.35999,0 -5.52,-3.40801 -5.52,-9.696 0,-6.192 2.16001,-9.552 5.568,-9.552"
         style="marker:none"
         id="path3296" />
      <path
         d="m 477.66605,465.71215 0,18.24 c 0,4.70399 -0.384,7.872 -1.584,9.504 l -4.704,-4.368 c -1.728,0.336 -2.784,1.632 -2.784,3.168 0,1.91999 1.68001,3.36 4.368,3.36 3.072,0 6.096,-1.44001 7.968,-3.84 2.16,-2.784 2.592,-6.33601 2.592,-11.136 l 0,-19.104 -2.016,0 -7.248,2.304 0,1.872 3.408,0 m -0.72,-11.52 c 0,2.11199 1.584,3.552 3.504,3.552 1.968,0 3.6,-1.53601 3.6,-3.504 0,-2.112 -1.536,-3.648 -3.504,-3.648 -2.16,0 -3.6,1.488 -3.6,3.6"
         style="marker:none"
         id="path3298" />
      <path
         d="m 500.89205,461.39215 c -7.53599,0 -12.432,4.896 -12.432,12.288 0,7.24799 4.84801,12.048 12.048,12.048 7.58399,0 12.432,-4.84801 12.432,-11.952 0,-7.632 -4.704,-12.384 -12.048,-12.384 m -0.192,2.544 c 3.408,0 5.616,3.408 5.616,9.696 0,6.23999 -2.112,9.552 -5.664,9.552 -3.35999,0 -5.52,-3.40801 -5.52,-9.696 0,-6.192 2.16001,-9.552 5.568,-9.552"
         style="marker:none"
         id="path3300" />
      <path
         d="m 522.1163,450.59215 c -1.968,0 -3.456,1.536 -3.456,3.6 0,2.11199 1.584,3.552 3.504,3.552 2.016,0 3.552,-1.48801 3.552,-3.648 0,-1.968 -1.44,-3.504 -3.6,-3.504 m 0.528,10.944 -6.768,2.256 0,1.92 3.168,0 0,16.56 -0.672,0.72 -2.592,0.192 0,2.16 12.576,0 0,-2.16 -2.688,-0.192 -0.72,-0.72 0,-20.736 -2.304,0"
         style="marker:none"
         id="path3302" />
      <path
         d="m 530.4533,485.34415 11.856,0 0,-2.16 -2.112,-0.192 -0.672,-0.72 0,-15.84 c 1.824,-0.528 3.36,-0.816 4.56,-0.816 3.024,0 4.32,1.632 4.32,5.184 l 0,11.472 -0.672,0.72 -2.064,0.192 0,2.16 11.76,0 0,-2.16 -2.544,-0.192 -0.624,-0.72 0,-12.864 c 0,-5.328 -2.112,-7.968 -6.528,-7.968 -2.112,0 -4.8,1.056 -8.208,2.928 l 0,-2.832 -2.304,0 -6.912,2.256 0,1.92 3.264,0 0,16.56 -0.672,0.72 -2.448,0.192 0,2.16"
         style="marker:none"
         id="path3304" />
      <path
         d="m 579.86855,461.39215 -6.768,2.304 0,1.872 3.12,0 0,12 c 0,5.51999 2.11201,8.208 6.576,8.208 2.544,0 5.04001,-1.10401 8.064,-3.072 l 0,2.64 9.072,0 0,-2.16 -2.496,-0.192 -0.672,-0.72 0,-20.88 -2.208,0 -6.816,2.304 0,1.872 3.12,0 0,15.312 c -1.584,0.48 -2.928,0.768 -4.128,0.768 -3.31199,0 -4.56,-1.63201 -4.56,-5.376 l 0,-14.88 -2.304,0"
         style="marker:none"
         id="path3306" />
      <path
         d="m 619.7378,462.54415 c -2.448,-0.816 -4.848,-1.2 -7.248,-1.2 -5.90399,0 -9.408,3.024 -9.408,7.152 0,2.87999 1.82401,4.56 5.376,6.336 3.744,1.87199 6.336,2.352 6.336,4.944 0,2.11199 -1.488,3.456 -4.08,3.456 -1.44,0 -2.784,-0.336 -4.032,-1.008 l -0.48,-0.528 -0.528,-4.128 -2.928,0 0,7.104 c 2.976,0.816 5.616,1.2 7.92,1.2 6.192,0 9.792,-3.07201 9.792,-7.92 0,-3.456 -2.736,-4.75201 -7.008,-6.816 -2.83199,-1.392 -4.464,-2.20801 -4.464,-4.224 0,-1.776 1.296,-2.88 3.648,-2.88 1.104,0 2.16,0.288 3.168,0.768 l 0.576,0.528 0.48,3.6 2.88,0 0,-6.384"
         style="marker:none"
         id="path3308" />
      <path
         d="m 643.9913,450.59215 c -1.968,0 -3.456,1.536 -3.456,3.6 0,2.11199 1.584,3.552 3.504,3.552 2.016,0 3.552,-1.48801 3.552,-3.648 0,-1.968 -1.44,-3.504 -3.6,-3.504 m 0.528,10.944 -6.768,2.256 0,1.92 3.168,0 0,16.56 -0.672,0.72 -2.592,0.192 0,2.16 12.576,0 0,-2.16 -2.688,-0.192 -0.72,-0.72 0,-20.736 -2.304,0"
         style="marker:none"
         id="path3310" />
      <path
         d="m 652.3283,485.34415 11.856,0 0,-2.16 -2.112,-0.192 -0.672,-0.72 0,-15.84 c 1.824,-0.528 3.36,-0.816 4.56,-0.816 3.024,0 4.32,1.632 4.32,5.184 l 0,11.472 -0.672,0.72 -2.064,0.192 0,2.16 11.76,0 0,-2.16 -2.544,-0.192 -0.624,-0.72 0,-12.864 c 0,-5.328 -2.112,-7.968 -6.528,-7.968 -2.112,0 -4.8,1.056 -8.208,2.928 l 0,-2.832 -2.304,0 -6.912,2.256 0,1.92 3.264,0 0,16.56 -0.672,0.72 -2.448,0.192 0,2.16"
         style="marker:none"
         id="path3312" />
      <path
         d="m 697.90355,465.47215 0,13.968 c 0,2.44799 0.048,3.984 1.728,5.088 1.104,0.768 2.4,1.056 3.984,1.056 1.968,0 4.46401,-0.48 7.344,-1.536 l 0,-2.304 c -0.96,0.24 -1.968,0.336 -3.12,0.336 -3.16799,0 -3.984,-1.24801 -3.984,-4.656 l 0,-11.952 7.104,0 0,-2.88 -7.104,0 0,-5.952 -3.024,0 -2.496,4.992 -3.552,2.016 0,1.824 3.12,0"
         style="marker:none"
         id="path3314" />
      <path
         d="m 718.8998,449.87215 -7.104,2.256 0,1.872 3.504,0 0,28.272 -0.672,0.72 -2.448,0.192 0,2.16 11.856,0 0,-2.16 -2.112,-0.192 -0.72,-0.72 0,-15.84 c 1.824,-0.528 3.36,-0.816 4.608,-0.816 2.976,0 4.32,1.632 4.32,5.184 l 0,11.472 -0.672,0.72 -2.064,0.192 0,2.16 11.76,0 0,-2.16 -2.544,-0.192 -0.624,-0.72 0,-12.864 c 0,-5.328 -2.16,-7.968 -6.576,-7.968 -2.16,0 -4.752,1.056 -8.208,2.928 l 0,-14.496 -2.304,0"
         style="marker:none"
         id="path3316" />
      <path
         d="m 763.2833,479.39215 c -2.78399,1.77599 -5.376,2.64 -7.92,2.64 -4.75199,0 -7.728,-3.26401 -7.728,-8.784 0,-0.048 0,-0.096 0,-0.144 l 15.696,0 c 0,-0.288 0,-0.624 0,-0.912 0,-6.912 -3.696,-10.848 -9.984,-10.848 -6.91199,0 -11.856,5.04 -11.856,12.384 0,7.24799 4.70401,12.048 11.856,12.048 3.36,0 6.72001,-0.96001 9.936,-2.832 l 0,-3.552 m -6.24,-8.832 -9.168,0 c 0.144,-4.176 2.11201,-6.576 4.992,-6.576 2.64,0 4.176,2.064 4.176,6.048 0,0.192 0,0.336 0,0.528"
         style="marker:none"
         id="path3318" />
      <path
         d="m 21.774802,497.87215 -7.104,2.256 0,1.872 3.504,0 0,28.272 -0.672,0.72 -2.448,0.192 0,2.16 11.856,0 0,-2.16 -2.112,-0.192 -0.72,-0.72 0,-15.84 c 1.823999,-0.528 3.360002,-0.816 4.608,-0.816 2.975997,0 4.32,1.632 4.32,5.184 l 0,11.472 -0.672,0.72 -2.064,0.192 0,2.16 11.76,0 0,-2.16 -2.544,-0.192 -0.624,-0.72 0,-12.864 c 0,-5.328 -2.160004,-7.968 -6.576,-7.968 -2.159997,0 -4.752003,1.056 -8.208,2.928 l 0,-14.496 -2.304,0"
         style="marker:none"
         id="path3320" />
      <path
         d="m 50.462302,509.39215 -6.768,2.304 0,1.872 3.12,0 0,12 c 0,5.51999 2.112005,8.208 6.576,8.208 2.543998,0 5.040003,-1.10401 8.064,-3.072 l 0,2.64 9.072,0 0,-2.16 -2.496,-0.192 -0.672,-0.72 0,-20.88 -2.208,0 -6.816,2.304 0,1.872 3.12,0 0,15.312 c -1.583998,0.48 -2.928001,0.768 -4.128,0.768 -3.311996,0 -4.56,-1.63201 -4.56,-5.376 l 0,-14.88 -2.304,0"
         style="marker:none"
         id="path3322" />
      <path
         d="m 72.859552,533.34415 11.856,0 0,-2.16 -2.112,-0.192 -0.672,-0.72 0,-15.84 c 1.823999,-0.528 3.360002,-0.816 4.56,-0.816 3.023997,0 4.32,1.632 4.32,5.184 l 0,11.472 -0.672,0.72 -2.064,0.192 0,2.16 11.76,0 0,-2.16 -2.544,-0.192 -0.624,-0.72 0,-12.864 c 0,-5.328 -2.112004,-7.968 -6.528,-7.968 -2.111997,0 -4.800003,1.056 -8.208,2.928 l 0,-2.832 -2.304,0 -6.912,2.256 0,1.92 3.264,0 0,16.56 -0.672,0.72 -2.448,0.192 0,2.16"
         style="marker:none"
         id="path3324" />
      <path
         d="m 104.46605,513.47215 0,13.968 c 0,2.44799 0.048,3.984 1.728,5.088 1.104,0.768 2.4,1.056 3.984,1.056 1.968,0 4.46401,-0.48 7.344,-1.536 l 0,-2.304 c -0.96,0.24 -1.968,0.336 -3.12,0.336 -3.16799,0 -3.984,-1.24801 -3.984,-4.656 l 0,-11.952 7.104,0 0,-2.88 -7.104,0 0,-5.952 -3.024,0 -2.496,4.992 -3.552,2.016 0,1.824 3.12,0"
         style="marker:none"
         id="path3326" />
      <path
         d="m 133.04705,533.34415 12.96,0 0,-2.208 -3.216,-0.24 -0.768,-0.72 0,-16.704 6.432,0 0,-2.88 -6.432,0 0,-2.88 c 0,-0.144 0,-0.288 0,-0.384 0,-3.552 0.624,-6 1.872,-7.296 l 4.656,4.128 c 1.824,-0.624 2.784,-1.68 2.784,-2.976 0,-2.064 -1.728,-3.504 -4.512,-3.504 -1.968,0 -4.032,0.672 -5.808,2.016 -3.31199,2.44799 -4.896,5.904 -4.896,10.512 l -3.12,1.44 0,1.824 3.12,0 0,16.656 -0.672,0.768 -2.4,0.24 0,2.208"
         style="marker:none"
         id="path3328" />
      <path
         d="m 162.1733,509.39215 c -7.53599,0 -12.432,4.896 -12.432,12.288 0,7.24799 4.84801,12.048 12.048,12.048 7.58399,0 12.432,-4.84801 12.432,-11.952 0,-7.632 -4.704,-12.384 -12.048,-12.384 m -0.192,2.544 c 3.408,0 5.616,3.408 5.616,9.696 0,6.23999 -2.112,9.552 -5.664,9.552 -3.35999,0 -5.52,-3.40801 -5.52,-9.696 0,-6.192 2.16001,-9.552 5.568,-9.552"
         style="marker:none"
         id="path3330" />
      <path
         d="m 177.01355,533.34415 13.248,0 0,-2.16 -3.408,-0.192 -0.72,-0.72 0,-13.776 c 1.488,-0.912 2.64,-1.344 3.408,-1.344 1.392,0 2.4,0.528 3.12,1.728 l 2.496,0 0.624,-6.624 c -1.056,-0.528 -2.112,-0.816 -3.168,-0.816 -0.336,0 -0.72,0.048 -1.056,0.096 -1.968,1.392 -3.888,3.024 -5.616,4.896 l 0.192,-4.896 -2.304,0 -7.056,2.256 0,1.92 3.456,0 0,16.56 -0.672,0.72 -2.544,0.192 0,2.16"
         style="marker:none"
         id="path3332" />
      <path
         d="m 228.9443,517.50415 0,2.352 3.552,0.24 0.768,0.672 0,9.792 c -1.248,0.096 -2.16,0.144 -2.64,0.144 -7.39199,0 -11.904,-5.04001 -11.904,-13.68 0,-8.39999 4.41601,-13.392 11.568,-13.392 1.392,0 2.688,0.24 3.984,0.768 l 0.72,0.864 0.912,5.088 3.504,0 0,-8.16 c -3.55199,-1.056 -6.96,-1.584 -10.128,-1.584 -10.65599,0 -17.52,6.57601 -17.52,16.416 0,9.98399 6.81601,16.896 16.896,16.896 3.504,0 7.05601,-0.672 10.752,-1.968 l 0,-11.184 0.768,-0.672 2.784,-0.24 0,-2.352 -14.016,0"
         style="marker:none"
         id="path3334" />
      <path
         d="m 245.4053,533.34415 14.352,0 0,-2.352 -3.216,-0.24 -0.768,-0.768 0,-25.584 0.768,-0.672 3.216,-0.24 0,-2.352 -14.352,0 0,2.352 3.168,0.24 0.768,0.672 0,25.584 -0.768,0.768 -3.168,0.24 0,2.352"
         style="marker:none"
         id="path3336" />
      <path
         d="m 263.76605,532.28815 c 2.976,1.056 6.19201,1.584 9.264,1.584 7.87199,0 12.72,-4.12801 12.72,-9.84 0,-2.832 -1.536,-5.42401 -4.32,-7.2 -2.83199,-1.824 -5.376,-2.544 -6.864,-3.456 -2.54399,-1.536 -3.888,-2.97601 -3.888,-5.184 0,-2.64 2.16001,-4.56 5.664,-4.56 1.536,0 2.64,0.24 3.504,0.672 l 0.672,0.672 0.816,4.992 3.456,0 0,-7.776 c -3.02399,-1.056 -6.048,-1.632 -9.024,-1.632 -6.86399,0 -11.328,4.128 -11.328,9.456 0,2.35199 1.152,4.704 3.36,6.576 2.112,1.77599 4.368,2.592 6.288,3.552 3.408,1.728 5.136,3.456 5.136,6.048 0,2.63999 -2.304,4.56 -6.192,4.56 -1.488,0 -2.88,-0.24 -4.224,-0.672 l -0.624,-0.72 -0.768,-5.76 -3.648,0 0,8.688"
         style="marker:none"
         id="path3338" />
      <path
         d="m 303.28805,543.85615 12.816,0 0.048,-2.208 -3.024,-0.192 -0.72,-0.672 0,-7.68 c 1.584,0.192 2.88,0.288 3.936,0.288 7.77599,0 12.72,-4.99201 12.72,-12.672 0,-6.72 -3.984,-11.328 -9.072,-11.328 -2.352,0 -4.752,1.056 -7.584,3.024 l 0,-2.88 -2.16,0 -7.008,2.256 0,1.92 3.312,0 0,26.976 -0.672,0.72 -2.592,0.24 0,2.208 m 9.12,-13.392 0,-16.032 c 1.44,-0.576 2.688,-0.912 3.792,-0.912 3.888,0 6.336,2.88 6.336,8.016 0,5.75999 -2.832,9.264 -7.056,9.264 -0.96,0 -1.968,-0.096 -3.072,-0.336"
         style="marker:none"
         id="path3340" />
      <path
         d="m 354.1583,527.39215 c -2.78399,1.77599 -5.376,2.64 -7.92,2.64 -4.75199,0 -7.728,-3.26401 -7.728,-8.784 0,-0.048 0,-0.096 0,-0.144 l 15.696,0 c 0,-0.288 0,-0.624 0,-0.912 0,-6.912 -3.696,-10.848 -9.984,-10.848 -6.91199,0 -11.856,5.04 -11.856,12.384 0,7.24799 4.70401,12.048 11.856,12.048 3.36,0 6.72001,-0.96001 9.936,-2.832 l 0,-3.552 m -6.24,-8.832 -9.168,0 c 0.144,-4.176 2.11201,-6.576 4.992,-6.576 2.64,0 4.176,2.064 4.176,6.048 0,0.192 0,0.336 0,0.528"
         style="marker:none"
         id="path3342" />
      <path
         d="m 357.1073,533.34415 13.248,0 0,-2.16 -3.408,-0.192 -0.72,-0.72 0,-13.776 c 1.488,-0.912 2.64,-1.344 3.408,-1.344 1.392,0 2.4,0.528 3.12,1.728 l 2.496,0 0.624,-6.624 c -1.056,-0.528 -2.112,-0.816 -3.168,-0.816 -0.336,0 -0.72,0.048 -1.056,0.096 -1.968,1.392 -3.888,3.024 -5.616,4.896 l 0.192,-4.896 -2.304,0 -7.056,2.256 0,1.92 3.456,0 0,16.56 -0.672,0.72 -2.544,0.192 0,2.16"
         style="marker:none"
         id="path3344" />
      <path
         d="m 377.4533,533.34415 12.96,0 0,-2.208 -3.216,-0.24 -0.768,-0.72 0,-16.704 6.432,0 0,-2.88 -6.432,0 0,-2.88 c 0,-0.144 0,-0.288 0,-0.384 0,-3.552 0.624,-6 1.872,-7.296 l 4.656,4.128 c 1.824,-0.624 2.784,-1.68 2.784,-2.976 0,-2.064 -1.728,-3.504 -4.512,-3.504 -1.968,0 -4.032,0.672 -5.808,2.016 -3.31199,2.44799 -4.896,5.904 -4.896,10.512 l -3.12,1.44 0,1.824 3.12,0 0,16.656 -0.672,0.768 -2.4,0.24 0,2.208"
         style="marker:none"
         id="path3346" />
      <path
         d="m 415.93955,527.39215 c -2.78399,1.77599 -5.376,2.64 -7.92,2.64 -4.75199,0 -7.728,-3.26401 -7.728,-8.784 0,-0.048 0,-0.096 0,-0.144 l 15.696,0 c 0,-0.288 0,-0.624 0,-0.912 0,-6.912 -3.696,-10.848 -9.984,-10.848 -6.91199,0 -11.856,5.04 -11.856,12.384 0,7.24799 4.70401,12.048 11.856,12.048 3.36,0 6.72001,-0.96001 9.936,-2.832 l 0,-3.552 m -6.24,-8.832 -9.168,0 c 0.144,-4.176 2.11201,-6.576 4.992,-6.576 2.64,0 4.176,2.064 4.176,6.048 0,0.192 0,0.336 0,0.528"
         style="marker:none"
         id="path3348" />
      <path
         d="m 439.76855,531.18415 0,-3.408 c -2.352,1.44 -4.608,2.16 -6.672,2.16 -4.46399,0 -7.392,-3.40801 -7.392,-9.168 0,-5.472 2.92801,-8.928 6.288,-8.928 0.336,0 0.72,0.048 1.2,0.144 l 0,5.088 c 0.864,0.624 1.776,0.912 2.832,0.912 2.064,0 3.456,-1.39201 3.456,-3.264 0,-2.928 -2.976,-5.232 -7.92,-5.232 -7.19999,0 -12.384,5.136 -12.384,12.432 0,6.95999 4.56001,11.808 11.52,11.808 3.072,0 6.00001,-0.864 9.072,-2.544"
         style="marker:none"
         id="path3350" />
      <path
         d="m 444.40355,513.47215 0,13.968 c 0,2.44799 0.048,3.984 1.728,5.088 1.104,0.768 2.4,1.056 3.984,1.056 1.968,0 4.46401,-0.48 7.344,-1.536 l 0,-2.304 c -0.96,0.24 -1.968,0.336 -3.12,0.336 -3.16799,0 -3.984,-1.24801 -3.984,-4.656 l 0,-11.952 7.104,0 0,-2.88 -7.104,0 0,-5.952 -3.024,0 -2.496,4.992 -3.552,2.016 0,1.824 3.12,0"
         style="marker:none"
         id="path3352" />
      <path
         d="m 465.3038,498.59215 c -1.968,0 -3.456,1.536 -3.456,3.6 0,2.11199 1.584,3.552 3.504,3.552 2.016,0 3.552,-1.48801 3.552,-3.648 0,-1.968 -1.44,-3.504 -3.6,-3.504 m 0.528,10.944 -6.768,2.256 0,1.92 3.168,0 0,16.56 -0.672,0.72 -2.592,0.192 0,2.16 12.576,0 0,-2.16 -2.688,-0.192 -0.72,-0.72 0,-20.736 -2.304,0"
         style="marker:none"
         id="path3354" />
      <path
         d="m 486.3608,509.39215 c -7.53599,0 -12.432,4.896 -12.432,12.288 0,7.24799 4.84801,12.048 12.048,12.048 7.58399,0 12.432,-4.84801 12.432,-11.952 0,-7.632 -4.704,-12.384 -12.048,-12.384 m -0.192,2.544 c 3.408,0 5.616,3.408 5.616,9.696 0,6.23999 -2.112,9.552 -5.664,9.552 -3.35999,0 -5.52,-3.40801 -5.52,-9.696 0,-6.192 2.16001,-9.552 5.568,-9.552"
         style="marker:none"
         id="path3356" />
      <path
         d="m 501.29705,533.34415 11.856,0 0,-2.16 -2.112,-0.192 -0.672,-0.72 0,-15.84 c 1.824,-0.528 3.36,-0.816 4.56,-0.816 3.024,0 4.32,1.632 4.32,5.184 l 0,11.472 -0.672,0.72 -2.064,0.192 0,2.16 11.76,0 0,-2.16 -2.544,-0.192 -0.624,-0.72 0,-12.864 c 0,-5.328 -2.112,-7.968 -6.528,-7.968 -2.112,0 -4.8,1.056 -8.208,2.928 l 0,-2.832 -2.304,0 -6.912,2.256 0,1.92 3.264,0 0,16.56 -0.672,0.72 -2.448,0.192 0,2.16"
         style="marker:none"
         id="path3358" />
      <path
         d="m 535.78355,526.09615 c -2.064,0 -3.744,1.68 -3.744,3.84 0,2.11199 1.68,3.792 3.744,3.792 2.112,0 3.84,-1.68001 3.84,-3.792 0,-2.112 -1.728,-3.84 -3.84,-3.84"
         style="marker:none"
         id="path3360" />
      <path
         d="m 558.1553,533.34415 14.352,0 0,-2.352 -3.216,-0.24 -0.768,-0.768 0,-25.584 0.768,-0.672 3.216,-0.24 0,-2.352 -14.352,0 0,2.352 3.168,0.24 0.768,0.672 0,25.584 -0.768,0.768 -3.168,0.24 0,2.352"
         style="marker:none"
         id="path3362" />
      <path
         d="m 575.17205,533.34415 12.96,0 0,-2.208 -3.216,-0.24 -0.768,-0.72 0,-16.704 6.432,0 0,-2.88 -6.432,0 0,-2.88 c 0,-0.144 0,-0.288 0,-0.384 0,-3.552 0.624,-6 1.872,-7.296 l 4.656,4.128 c 1.824,-0.624 2.784,-1.68 2.784,-2.976 0,-2.064 -1.728,-3.504 -4.512,-3.504 -1.968,0 -4.032,0.672 -5.808,2.016 -3.31199,2.44799 -4.896,5.904 -4.896,10.512 l -3.12,1.44 0,1.824 3.12,0 0,16.656 -0.672,0.768 -2.4,0.24 0,2.208"
         style="marker:none"
         id="path3364" />
      <path
         d="m 603.86705,510.01615 0,2.064 2.88,0.432 8.544,21.408 c -1.2,2.87999 -2.496,4.848 -3.744,5.856 l -4.176,-2.88 c -1.584,0.816 -2.496,2.016 -2.496,3.408 0,1.82399 1.776,3.552 4.128,3.552 3.168,0 6.576,-3.16801 8.928,-8.832 l 9.264,-22.512 2.592,-0.432 0,-2.064 -9.216,0 0,2.064 2.544,0.288 0.432,0.72 -5.232,13.536 -5.184,-13.584 0.48,-0.672 2.448,-0.288 0,-2.064 -12.192,0"
         style="marker:none"
         id="path3366" />
      <path
         d="m 643.01705,509.39215 c -7.53599,0 -12.432,4.896 -12.432,12.288 0,7.24799 4.84801,12.048 12.048,12.048 7.58399,0 12.432,-4.84801 12.432,-11.952 0,-7.632 -4.704,-12.384 -12.048,-12.384 m -0.192,2.544 c 3.408,0 5.616,3.408 5.616,9.696 0,6.23999 -2.112,9.552 -5.664,9.552 -3.35999,0 -5.52,-3.40801 -5.52,-9.696 0,-6.192 2.16001,-9.552 5.568,-9.552"
         style="marker:none"
         id="path3368" />
      <path
         d="m 664.3373,509.39215 -6.768,2.304 0,1.872 3.12,0 0,12 c 0,5.51999 2.11201,8.208 6.576,8.208 2.544,0 5.04001,-1.10401 8.064,-3.072 l 0,2.64 9.072,0 0,-2.16 -2.496,-0.192 -0.672,-0.72 0,-20.88 -2.208,0 -6.816,2.304 0,1.872 3.12,0 0,15.312 c -1.584,0.48 -2.928,0.768 -4.128,0.768 -3.31199,0 -4.56,-1.63201 -4.56,-5.376 l 0,-14.88 -2.304,0"
         style="marker:none"
         id="path3370" />
      <path
         d="m 715.6793,530.60815 0.624,2.736 8.544,0 0,-2.112 -2.544,-0.24 -0.624,-0.672 0,-12.432 c 0,-6.144 -2.256,-8.496 -8.976,-8.496 -6.33599,0 -10.464,2.832 -10.464,5.568 0,1.296 0.768,1.776 2.208,1.776 l 4.416,0 0,-4.512 c 0.864,-0.192 1.584,-0.288 2.304,-0.288 3.168,0 4.56,1.536 4.56,4.992 l 0,1.44 c -10.03199,2.25599 -14.592,3.648 -14.592,9.168 0,3.64799 2.59201,6.24 6.288,6.24 2.592,0 5.18401,-1.10401 8.256,-3.168 m 0,-1.968 c -1.872,0.96 -3.408,1.44 -4.656,1.44 -2.208,0 -3.552,-1.39201 -3.552,-3.6 0,-3.168 2.54401,-4.416 8.208,-5.664 l 0,7.824"
         style="marker:none"
         id="path3372" />
      <path
         d="m 744.90755,510.88015 c -2.352,-0.96 -4.56,-1.392 -6.624,-1.392 -6.38399,0 -10.272,3.36 -10.272,8.256 0,3.45599 2.06401,6.096 5.952,7.2 -1.776,1.584 -2.64,2.976 -2.64,4.56 0,0.672 0.192,1.488 0.624,2.4 -3.07199,0.288 -4.944,2.304 -4.944,5.28 0,3.93599 3.60001,6.576 9.936,6.576 7.72799,0 12.912,-3.98401 12.912,-8.496 0,-4.08 -3.552,-5.52 -10.512,-6.528 l -3.264,-0.432 c -0.096,-0.48 -0.144,-0.912 -0.144,-1.296 0,-0.576 0.144,-1.152 0.384,-1.776 0.48,0.048 0.96,0.048 1.392,0.048 6.336,0 10.176,-3.36001 10.176,-7.968 0,-1.248 -0.336,-2.448 -1.056,-3.696 l 5.184,0 0,-2.736 -7.104,0 m -6.72,0.864 c 2.112,0 3.792,2.064 3.792,5.52 0,3.64799 -1.632,5.856 -3.888,5.856 -2.304,0 -3.936,-2.16001 -3.936,-5.808 0,-3.504 1.632,-5.568 4.032,-5.568 m -3.312,20.688 4.08,0.672 c 3.408,0.576 5.184,1.248 5.184,3.6 0,2.44799 -2.256,4.512 -5.712,4.512 -3.21599,0 -5.568,-2.20801 -5.568,-4.8 0,-1.536 0.672,-2.88 2.016,-3.984"
         style="marker:none"
         id="path3374" />
      <path
         d="m 753.20105,533.34415 13.248,0 0,-2.16 -3.408,-0.192 -0.72,-0.72 0,-13.776 c 1.488,-0.912 2.64,-1.344 3.408,-1.344 1.392,0 2.4,0.528 3.12,1.728 l 2.496,0 0.624,-6.624 c -1.056,-0.528 -2.112,-0.816 -3.168,-0.816 -0.336,0 -0.72,0.048 -1.056,0.096 -1.968,1.392 -3.888,3.024 -5.616,4.896 l 0.192,-4.896 -2.304,0 -7.056,2.256 0,1.92 3.456,0 0,16.56 -0.672,0.72 -2.544,0.192 0,2.16"
         style="marker:none"
         id="path3376" />
      <path
         d="m 795.62705,527.39215 c -2.78399,1.77599 -5.376,2.64 -7.92,2.64 -4.75199,0 -7.728,-3.26401 -7.728,-8.784 0,-0.048 0,-0.096 0,-0.144 l 15.696,0 c 0,-0.288 0,-0.624 0,-0.912 0,-6.912 -3.696,-10.848 -9.984,-10.848 -6.91199,0 -11.856,5.04 -11.856,12.384 0,7.24799 4.70401,12.048 11.856,12.048 3.36,0 6.72001,-0.96001 9.936,-2.832 l 0,-3.552 m -6.24,-8.832 -9.168,0 c 0.144,-4.176 2.11201,-6.576 4.992,-6.576 2.64,0 4.176,2.064 4.176,6.048 0,0.192 0,0.336 0,0.528"
         style="marker:none"
         id="path3378" />
      <path
         d="m 820.75205,527.39215 c -2.78399,1.77599 -5.376,2.64 -7.92,2.64 -4.75199,0 -7.728,-3.26401 -7.728,-8.784 0,-0.048 0,-0.096 0,-0.144 l 15.696,0 c 0,-0.288 0,-0.624 0,-0.912 0,-6.912 -3.696,-10.848 -9.984,-10.848 -6.91199,0 -11.856,5.04 -11.856,12.384 0,7.24799 4.70401,12.048 11.856,12.048 3.36,0 6.72001,-0.96001 9.936,-2.832 l 0,-3.552 m -6.24,-8.832 -9.168,0 c 0.144,-4.176 2.11201,-6.576 4.992,-6.576 2.64,0 4.176,2.064 4.176,6.048 0,0.192 0,0.336 0,0.528"
         style="marker:none"
         id="path3380" />
      <path
         d="m 17.934802,561.47215 0,13.968 c 0,2.44799 0.048,3.984 1.728,5.088 1.103999,0.768 2.400002,1.056 3.984,1.056 1.967998,0 4.464003,-0.48 7.344,-1.536 l 0,-2.304 c -0.959999,0.24 -1.968001,0.336 -3.12,0.336 -3.167996,0 -3.984,-1.24801 -3.984,-4.656 l 0,-11.952 7.104,0 0,-2.88 -7.104,0 0,-5.952 -3.024,0 -2.496,4.992 -3.552,2.016 0,1.824 3.12,0"
         style="marker:none"
         id="path3382" />
      <path
         d="m 38.931052,545.87215 -7.104,2.256 0,1.872 3.504,0 0,28.272 -0.672,0.72 -2.448,0.192 0,2.16 11.856,0 0,-2.16 -2.112,-0.192 -0.72,-0.72 0,-15.84 c 1.823999,-0.528 3.360002,-0.816 4.608,-0.816 2.975997,0 4.32,1.632 4.32,5.184 l 0,11.472 -0.672,0.72 -2.064,0.192 0,2.16 11.76,0 0,-2.16 -2.544,-0.192 -0.624,-0.72 0,-12.864 c 0,-5.328 -2.160004,-7.968 -6.576,-7.968 -2.159997,0 -4.752003,1.056 -8.208,2.928 l 0,-14.496 -2.304,0"
         style="marker:none"
         id="path3384" />
      <path
         d="m 76.210552,578.60815 0.624,2.736 8.544,0 0,-2.112 -2.544,-0.24 -0.624,-0.672 0,-12.432 c 0,-6.144 -2.256006,-8.496 -8.976,-8.496 -6.335993,0 -10.464,2.832 -10.464,5.568 0,1.296 0.768002,1.776 2.208,1.776 l 4.416,0 0,-4.512 c 0.864,-0.192 1.584001,-0.288 2.304,-0.288 3.167997,0 4.56,1.536 4.56,4.992 l 0,1.44 c -10.03199,2.25599 -14.592,3.648 -14.592,9.168 0,3.64799 2.592004,6.24 6.288,6.24 2.591998,0 5.184004,-1.10401 8.256,-3.168 m 0,-1.968 c -1.871998,0.96 -3.408001,1.44 -4.656,1.44 -2.207997,0 -3.552,-1.39201 -3.552,-3.6 0,-3.168 2.544006,-4.416 8.208,-5.664 l 0,7.824"
         style="marker:none"
         id="path3386" />
      <path
         d="m 89.934802,561.47215 0,13.968 c 0,2.44799 0.048,3.984 1.728,5.088 1.103999,0.768 2.400002,1.056 3.984,1.056 1.967998,0 4.464008,-0.48 7.343998,-1.536 l 0,-2.304 c -0.96,0.24 -1.968,0.336 -3.119998,0.336 -3.167996,0 -3.984,-1.24801 -3.984,-4.656 l 0,-11.952 7.103998,0 0,-2.88 -7.103998,0 0,-5.952 -3.024,0 -2.496,4.992 -3.552,2.016 0,1.824 3.12,0"
         style="marker:none"
         id="path3388" />
      <path
         d="m 141.0758,560.70415 c -1.296,-2.208 -3.216,-3.36 -5.616,-3.36 -2.112,0 -4.608,1.104 -7.872,3.024 l 0,-2.832 -2.304,0 -6.768,2.256 0,1.92 3.12,0 0,16.56 -0.672,0.72 -2.448,0.192 0,2.16 11.76,0 0,-2.16 -2.016,-0.192 -0.672,-0.72 0,-15.84 c 1.536,-0.576 2.88,-0.864 4.032,-0.864 3.072,0 4.32,1.584 4.32,4.944 l 0,11.664 -0.672,0.816 -1.968,0.192 0,2.16 11.328,0 0,-2.112 -2.16,-0.24 -0.672,-0.72 0,-15.744 c 1.584,-0.576 2.928,-0.912 4.128,-0.912 3.168,0 4.416,1.584 4.416,5.184 l 0,11.472 -0.672,0.72 -2.064,0.192 0,2.16 11.808,0 0,-2.16 -2.544,-0.192 -0.624,-0.72 0,-12.864 c 0,-5.328 -2.208,-7.968 -6.672,-7.968 -1.776,0 -4.656,1.056 -8.496,3.264"
         style="marker:none"
         id="path3390" />
      <path
         d="m 176.33555,578.60815 0.624,2.736 8.544,0 0,-2.112 -2.544,-0.24 -0.624,-0.672 0,-12.432 c 0,-6.144 -2.256,-8.496 -8.976,-8.496 -6.33599,0 -10.464,2.832 -10.464,5.568 0,1.296 0.768,1.776 2.208,1.776 l 4.416,0 0,-4.512 c 0.864,-0.192 1.584,-0.288 2.304,-0.288 3.168,0 4.56,1.536 4.56,4.992 l 0,1.44 c -10.03199,2.25599 -14.592,3.648 -14.592,9.168 0,3.64799 2.59201,6.24 6.288,6.24 2.592,0 5.18401,-1.10401 8.256,-3.168 m 0,-1.968 c -1.872,0.96 -3.408,1.44 -4.656,1.44 -2.208,0 -3.552,-1.39201 -3.552,-3.6 0,-3.168 2.54401,-4.416 8.208,-5.664 l 0,7.824"
         style="marker:none"
         id="path3392" />
      <path
         d="m 187.1318,591.85615 12.816,0 0.048,-2.208 -3.024,-0.192 -0.72,-0.672 0,-7.68 c 1.584,0.192 2.88,0.288 3.936,0.288 7.77599,0 12.72,-4.99201 12.72,-12.672 0,-6.72 -3.984,-11.328 -9.072,-11.328 -2.352,0 -4.752,1.056 -7.584,3.024 l 0,-2.88 -2.16,0 -7.008,2.256 0,1.92 3.312,0 0,26.976 -0.672,0.72 -2.592,0.24 0,2.208 m 9.12,-13.392 0,-16.032 c 1.44,-0.576 2.688,-0.912 3.792,-0.912 3.888,0 6.336,2.88 6.336,8.016 0,5.75999 -2.832,9.264 -7.056,9.264 -0.96,0 -1.968,-0.096 -3.072,-0.336"
         style="marker:none"
         id="path3394" />
      <path
         d="m 233.39405,558.54415 c -2.448,-0.816 -4.848,-1.2 -7.248,-1.2 -5.90399,0 -9.408,3.024 -9.408,7.152 0,2.87999 1.82401,4.56 5.376,6.336 3.744,1.87199 6.336,2.352 6.336,4.944 0,2.11199 -1.488,3.456 -4.08,3.456 -1.44,0 -2.784,-0.336 -4.032,-1.008 l -0.48,-0.528 -0.528,-4.128 -2.928,0 0,7.104 c 2.976,0.816 5.616,1.2 7.92,1.2 6.192,0 9.792,-3.07201 9.792,-7.92 0,-3.456 -2.736,-4.75201 -7.008,-6.816 -2.83199,-1.392 -4.464,-2.20801 -4.464,-4.224 0,-1.776 1.296,-2.88 3.648,-2.88 1.104,0 2.16,0.288 3.168,0.768 l 0.576,0.528 0.48,3.6 2.88,0 0,-6.384"
         style="marker:none"
         id="path3396" />
      <path
         d="m 272.14355,579.18415 0,-3.408 c -2.352,1.44 -4.608,2.16 -6.672,2.16 -4.46399,0 -7.392,-3.40801 -7.392,-9.168 0,-5.472 2.92801,-8.928 6.288,-8.928 0.336,0 0.72,0.048 1.2,0.144 l 0,5.088 c 0.864,0.624 1.776,0.912 2.832,0.912 2.064,0 3.456,-1.39201 3.456,-3.264 0,-2.928 -2.976,-5.232 -7.92,-5.232 -7.19999,0 -12.384,5.136 -12.384,12.432 0,6.95999 4.56001,11.808 11.52,11.808 3.072,0 6.00001,-0.864 9.072,-2.544"
         style="marker:none"
         id="path3398" />
      <path
         d="m 289.21055,578.60815 0.624,2.736 8.544,0 0,-2.112 -2.544,-0.24 -0.624,-0.672 0,-12.432 c 0,-6.144 -2.256,-8.496 -8.976,-8.496 -6.33599,0 -10.464,2.832 -10.464,5.568 0,1.296 0.768,1.776 2.208,1.776 l 4.416,0 0,-4.512 c 0.864,-0.192 1.584,-0.288 2.304,-0.288 3.168,0 4.56,1.536 4.56,4.992 l 0,1.44 c -10.03199,2.25599 -14.592,3.648 -14.592,9.168 0,3.64799 2.59201,6.24 6.288,6.24 2.592,0 5.18401,-1.10401 8.256,-3.168 m 0,-1.968 c -1.872,0.96 -3.408,1.44 -4.656,1.44 -2.208,0 -3.552,-1.39201 -3.552,-3.6 0,-3.168 2.54401,-4.416 8.208,-5.664 l 0,7.824"
         style="marker:none"
         id="path3400" />
      <path
         d="m 300.3908,581.34415 11.856,0 0,-2.16 -2.112,-0.192 -0.672,-0.72 0,-15.84 c 1.824,-0.528 3.36,-0.816 4.56,-0.816 3.024,0 4.32,1.632 4.32,5.184 l 0,11.472 -0.672,0.72 -2.064,0.192 0,2.16 11.76,0 0,-2.16 -2.544,-0.192 -0.624,-0.72 0,-12.864 c 0,-5.328 -2.112,-7.968 -6.528,-7.968 -2.112,0 -4.8,1.056 -8.208,2.928 l 0,-2.832 -2.304,0 -6.912,2.256 0,1.92 3.264,0 0,16.56 -0.672,0.72 -2.448,0.192 0,2.16"
         style="marker:none"
         id="path3402" />
      <path
         d="m 349.80605,545.87215 -7.104,2.256 0,1.872 3.504,0 0,28.272 -0.672,0.72 -2.448,0.192 0,2.16 11.856,0 0,-2.16 -2.112,-0.192 -0.72,-0.72 0,-15.84 c 1.824,-0.528 3.36,-0.816 4.608,-0.816 2.976,0 4.32,1.632 4.32,5.184 l 0,11.472 -0.672,0.72 -2.064,0.192 0,2.16 11.76,0 0,-2.16 -2.544,-0.192 -0.624,-0.72 0,-12.864 c 0,-5.328 -2.16,-7.968 -6.576,-7.968 -2.16,0 -4.752,1.056 -8.208,2.928 l 0,-14.496 -2.304,0"
         style="marker:none"
         id="path3404" />
      <path
         d="m 394.18955,575.39215 c -2.78399,1.77599 -5.376,2.64 -7.92,2.64 -4.75199,0 -7.728,-3.26401 -7.728,-8.784 0,-0.048 0,-0.096 0,-0.144 l 15.696,0 c 0,-0.288 0,-0.624 0,-0.912 0,-6.912 -3.696,-10.848 -9.984,-10.848 -6.91199,0 -11.856,5.04 -11.856,12.384 0,7.24799 4.70401,12.048 11.856,12.048 3.36,0 6.72001,-0.96001 9.936,-2.832 l 0,-3.552 m -6.24,-8.832 -9.168,0 c 0.144,-4.176 2.11201,-6.576 4.992,-6.576 2.64,0 4.176,2.064 4.176,6.048 0,0.192 0,0.336 0,0.528"
         style="marker:none"
         id="path3406" />
      <path
         d="m 396.85055,581.34415 12.864,0 0,-2.112 -2.784,-0.288 -0.72,-0.768 0,-32.304 -2.112,0 -7.248,2.304 0,1.872 3.456,0 0,28.224 -0.672,0.672 -2.784,0.288 0,2.112"
         style="marker:none"
         id="path3408" />
      <path
         d="m 411.47555,591.85615 12.816,0 0.048,-2.208 -3.024,-0.192 -0.72,-0.672 0,-7.68 c 1.584,0.192 2.88,0.288 3.936,0.288 7.77599,0 12.72,-4.99201 12.72,-12.672 0,-6.72 -3.984,-11.328 -9.072,-11.328 -2.352,0 -4.752,1.056 -7.584,3.024 l 0,-2.88 -2.16,0 -7.008,2.256 0,1.92 3.312,0 0,26.976 -0.672,0.72 -2.592,0.24 0,2.208 m 9.12,-13.392 0,-16.032 c 1.44,-0.576 2.688,-0.912 3.792,-0.912 3.888,0 6.336,2.88 6.336,8.016 0,5.75999 -2.832,9.264 -7.056,9.264 -0.96,0 -1.968,-0.096 -3.072,-0.336"
         style="marker:none"
         id="path3410" />
      <path
         d="m 460.61855,557.39215 -6.768,2.304 0,1.872 3.12,0 0,12 c 0,5.51999 2.11201,8.208 6.576,8.208 2.544,0 5.04001,-1.10401 8.064,-3.072 l 0,2.64 9.072,0 0,-2.16 -2.496,-0.192 -0.672,-0.72 0,-20.88 -2.208,0 -6.816,2.304 0,1.872 3.12,0 0,15.312 c -1.584,0.48 -2.928,0.768 -4.128,0.768 -3.31199,0 -4.56,-1.63201 -4.56,-5.376 l 0,-14.88 -2.304,0"
         style="marker:none"
         id="path3412" />
      <path
         d="m 500.4878,558.54415 c -2.448,-0.816 -4.848,-1.2 -7.248,-1.2 -5.90399,0 -9.408,3.024 -9.408,7.152 0,2.87999 1.82401,4.56 5.376,6.336 3.744,1.87199 6.336,2.352 6.336,4.944 0,2.11199 -1.488,3.456 -4.08,3.456 -1.44,0 -2.784,-0.336 -4.032,-1.008 l -0.48,-0.528 -0.528,-4.128 -2.928,0 0,7.104 c 2.976,0.816 5.616,1.2 7.92,1.2 6.192,0 9.792,-3.07201 9.792,-7.92 0,-3.456 -2.736,-4.75201 -7.008,-6.816 -2.83199,-1.392 -4.464,-2.20801 -4.464,-4.224 0,-1.776 1.296,-2.88 3.648,-2.88 1.104,0 2.16,0.288 3.168,0.768 l 0.576,0.528 0.48,3.6 2.88,0 0,-6.384"
         style="marker:none"
         id="path3414" />
      <path
         d="m 535.9253,558.54415 c -2.448,-0.816 -4.848,-1.2 -7.248,-1.2 -5.90399,0 -9.408,3.024 -9.408,7.152 0,2.87999 1.82401,4.56 5.376,6.336 3.744,1.87199 6.336,2.352 6.336,4.944 0,2.11199 -1.488,3.456 -4.08,3.456 -1.44,0 -2.784,-0.336 -4.032,-1.008 l -0.48,-0.528 -0.528,-4.128 -2.928,0 0,7.104 c 2.976,0.816 5.616,1.2 7.92,1.2 6.192,0 9.792,-3.07201 9.792,-7.92 0,-3.456 -2.736,-4.75201 -7.008,-6.816 -2.83199,-1.392 -4.464,-2.20801 -4.464,-4.224 0,-1.776 1.296,-2.88 3.648,-2.88 1.104,0 2.16,0.288 3.168,0.768 l 0.576,0.528 0.48,3.6 2.88,0 0,-6.384"
         style="marker:none"
         id="path3416" />
      <path
         d="m 552.64205,557.39215 c -7.53599,0 -12.432,4.896 -12.432,12.288 0,7.24799 4.84801,12.048 12.048,12.048 7.58399,0 12.432,-4.84801 12.432,-11.952 0,-7.632 -4.704,-12.384 -12.048,-12.384 m -0.192,2.544 c 3.408,0 5.616,3.408 5.616,9.696 0,6.23999 -2.112,9.552 -5.664,9.552 -3.35999,0 -5.52,-3.40801 -5.52,-9.696 0,-6.192 2.16001,-9.552 5.568,-9.552"
         style="marker:none"
         id="path3418" />
      <path
         d="m 567.1943,581.34415 12.864,0 0,-2.112 -2.784,-0.288 -0.72,-0.768 0,-32.304 -2.112,0 -7.248,2.304 0,1.872 3.456,0 0,28.224 -0.672,0.672 -2.784,0.288 0,2.112"
         style="marker:none"
         id="path3420" />
      <path
         d="m 580.4273,557.96815 0,2.208 2.88,0.288 7.68,20.88 4.32,0 8.256,-20.832 2.784,-0.336 0,-2.208 -9.12,0 0,2.208 2.448,0.24 0.384,0.672 -5.472,13.968 -4.992,-14.016 0.528,-0.624 2.496,-0.24 0,-2.208 -12.192,0"
         style="marker:none"
         id="path3422" />
      <path
         d="m 628.93955,575.39215 c -2.78399,1.77599 -5.376,2.64 -7.92,2.64 -4.75199,0 -7.728,-3.26401 -7.728,-8.784 0,-0.048 0,-0.096 0,-0.144 l 15.696,0 c 0,-0.288 0,-0.624 0,-0.912 0,-6.912 -3.696,-10.848 -9.984,-10.848 -6.91199,0 -11.856,5.04 -11.856,12.384 0,7.24799 4.70401,12.048 11.856,12.048 3.36,0 6.72001,-0.96001 9.936,-2.832 l 0,-3.552 m -6.24,-8.832 -9.168,0 c 0.144,-4.176 2.11201,-6.576 4.992,-6.576 2.64,0 4.176,2.064 4.176,6.048 0,0.192 0,0.336 0,0.528"
         style="marker:none"
         id="path3424" />
      <path
         d="m 645.5693,581.34415 12.864,0 0,-2.112 -2.784,-0.288 -0.72,-0.768 0,-32.304 -2.112,0 -7.248,2.304 0,1.872 3.456,0 0,28.224 -0.672,0.672 -2.784,0.288 0,2.112"
         style="marker:none"
         id="path3426" />
      <path
         d="m 666.8663,546.59215 c -1.968,0 -3.456,1.536 -3.456,3.6 0,2.11199 1.584,3.552 3.504,3.552 2.016,0 3.552,-1.48801 3.552,-3.648 0,-1.968 -1.44,-3.504 -3.6,-3.504 m 0.528,10.944 -6.768,2.256 0,1.92 3.168,0 0,16.56 -0.672,0.72 -2.592,0.192 0,2.16 12.576,0 0,-2.16 -2.688,-0.192 -0.72,-0.72 0,-20.736 -2.304,0"
         style="marker:none"
         id="path3428" />
      <path
         d="m 675.2033,581.34415 12.96,0 0,-2.208 -3.216,-0.24 -0.768,-0.72 0,-16.704 6.432,0 0,-2.88 -6.432,0 0,-2.88 c 0,-0.144 0,-0.288 0,-0.384 0,-3.552 0.624,-6 1.872,-7.296 l 4.656,4.128 c 1.824,-0.624 2.784,-1.68 2.784,-2.976 0,-2.064 -1.728,-3.504 -4.512,-3.504 -1.968,0 -4.032,0.672 -5.808,2.016 -3.31199,2.44799 -4.896,5.904 -4.896,10.512 l -3.12,1.44 0,1.824 3.12,0 0,16.656 -0.672,0.768 -2.4,0.24 0,2.208"
         style="marker:none"
         id="path3430" />
      <path
         d="m 713.68955,575.39215 c -2.78399,1.77599 -5.376,2.64 -7.92,2.64 -4.75199,0 -7.728,-3.26401 -7.728,-8.784 0,-0.048 0,-0.096 0,-0.144 l 15.696,0 c 0,-0.288 0,-0.624 0,-0.912 0,-6.912 -3.696,-10.848 -9.984,-10.848 -6.91199,0 -11.856,5.04 -11.856,12.384 0,7.24799 4.70401,12.048 11.856,12.048 3.36,0 6.72001,-0.96001 9.936,-2.832 l 0,-3.552 m -6.24,-8.832 -9.168,0 c 0.144,-4.176 2.11201,-6.576 4.992,-6.576 2.64,0 4.176,2.064 4.176,6.048 0,0.192 0,0.336 0,0.528"
         style="marker:none"
         id="path3432" />
      <path
         d="m 718.99055,561.28015 0.912,0 1.728,-10.752 c 0.048,-0.288 0.048,-0.624 0.048,-0.912 0,-1.68 -0.816,-2.544 -2.256,-2.544 -1.392,0 -2.208,0.912 -2.208,2.544 0,0.288 0,0.576 0.048,0.912 l 1.728,10.752"
         style="marker:none"
         id="path3434" />
      <path
         d="m 742.64405,558.54415 c -2.448,-0.816 -4.848,-1.2 -7.248,-1.2 -5.90399,0 -9.408,3.024 -9.408,7.152 0,2.87999 1.82401,4.56 5.376,6.336 3.744,1.87199 6.336,2.352 6.336,4.944 0,2.11199 -1.488,3.456 -4.08,3.456 -1.44,0 -2.784,-0.336 -4.032,-1.008 l -0.48,-0.528 -0.528,-4.128 -2.928,0 0,7.104 c 2.976,0.816 5.616,1.2 7.92,1.2 6.192,0 9.792,-3.07201 9.792,-7.92 0,-3.456 -2.736,-4.75201 -7.008,-6.816 -2.83199,-1.392 -4.464,-2.20801 -4.464,-4.224 0,-1.776 1.296,-2.88 3.648,-2.88 1.104,0 2.16,0.288 3.168,0.768 l 0.576,0.528 0.48,3.6 2.88,0 0,-6.384"
         style="marker:none"
         id="path3436" />
      <path
         d="m 778.65755,558.88015 c -2.352,-0.96 -4.56,-1.392 -6.624,-1.392 -6.38399,0 -10.272,3.36 -10.272,8.256 0,3.45599 2.06401,6.096 5.952,7.2 -1.776,1.584 -2.64,2.976 -2.64,4.56 0,0.672 0.192,1.488 0.624,2.4 -3.07199,0.288 -4.944,2.304 -4.944,5.28 0,3.93599 3.60001,6.576 9.936,6.576 7.72799,0 12.912,-3.98401 12.912,-8.496 0,-4.08 -3.552,-5.52 -10.512,-6.528 l -3.264,-0.432 c -0.096,-0.48 -0.144,-0.912 -0.144,-1.296 0,-0.576 0.144,-1.152 0.384,-1.776 0.48,0.048 0.96,0.048 1.392,0.048 6.336,0 10.176,-3.36001 10.176,-7.968 0,-1.248 -0.336,-2.448 -1.056,-3.696 l 5.184,0 0,-2.736 -7.104,0 m -6.72,0.864 c 2.112,0 3.792,2.064 3.792,5.52 0,3.64799 -1.632,5.856 -3.888,5.856 -2.304,0 -3.936,-2.16001 -3.936,-5.808 0,-3.504 1.632,-5.568 4.032,-5.568 m -3.312,20.688 4.08,0.672 c 3.408,0.576 5.184,1.248 5.184,3.6 0,2.44799 -2.256,4.512 -5.712,4.512 -3.21599,0 -5.568,-2.20801 -5.568,-4.8 0,-1.536 0.672,-2.88 2.016,-3.984"
         style="marker:none"
         id="path3438" />
      <path
         d="m 786.95105,581.34415 13.248,0 0,-2.16 -3.408,-0.192 -0.72,-0.72 0,-13.776 c 1.488,-0.912 2.64,-1.344 3.408,-1.344 1.392,0 2.4,0.528 3.12,1.728 l 2.496,0 0.624,-6.624 c -1.056,-0.528 -2.112,-0.816 -3.168,-0.816 -0.336,0 -0.72,0.048 -1.056,0.096 -1.968,1.392 -3.888,3.024 -5.616,4.896 l 0.192,-4.896 -2.304,0 -7.056,2.256 0,1.92 3.456,0 0,16.56 -0.672,0.72 -2.544,0.192 0,2.16"
         style="marker:none"
         id="path3440" />
      <path
         d="m 829.37705,575.39215 c -2.78399,1.77599 -5.376,2.64 -7.92,2.64 -4.75199,0 -7.728,-3.26401 -7.728,-8.784 0,-0.048 0,-0.096 0,-0.144 l 15.696,0 c 0,-0.288 0,-0.624 0,-0.912 0,-6.912 -3.696,-10.848 -9.984,-10.848 -6.91199,0 -11.856,5.04 -11.856,12.384 0,7.24799 4.70401,12.048 11.856,12.048 3.36,0 6.72001,-0.96001 9.936,-2.832 l 0,-3.552 m -6.24,-8.832 -9.168,0 c 0.144,-4.176 2.11201,-6.576 4.992,-6.576 2.64,0 4.176,2.064 4.176,6.048 0,0.192 0,0.336 0,0.528"
         style="marker:none"
         id="path3442" />
      <path
         d="m 847.39805,578.60815 0.624,2.736 8.544,0 0,-2.112 -2.544,-0.24 -0.624,-0.672 0,-12.432 c 0,-6.144 -2.256,-8.496 -8.976,-8.496 -6.33599,0 -10.464,2.832 -10.464,5.568 0,1.296 0.768,1.776 2.208,1.776 l 4.416,0 0,-4.512 c 0.864,-0.192 1.584,-0.288 2.304,-0.288 3.168,0 4.56,1.536 4.56,4.992 l 0,1.44 c -10.03199,2.25599 -14.592,3.648 -14.592,9.168 0,3.64799 2.59201,6.24 6.288,6.24 2.592,0 5.18401,-1.10401 8.256,-3.168 m 0,-1.968 c -1.872,0.96 -3.408,1.44 -4.656,1.44 -2.208,0 -3.552,-1.39201 -3.552,-3.6 0,-3.168 2.54401,-4.416 8.208,-5.664 l 0,7.824"
         style="marker:none"
         id="path3444" />
      <path
         d="m 861.1223,561.47215 0,13.968 c 0,2.44799 0.048,3.984 1.728,5.088 1.104,0.768 2.4,1.056 3.984,1.056 1.968,0 4.46401,-0.48 7.344,-1.536 l 0,-2.304 c -0.96,0.24 -1.968,0.336 -3.12,0.336 -3.16799,0 -3.984,-1.24801 -3.984,-4.656 l 0,-11.952 7.104,0 0,-2.88 -7.104,0 0,-5.952 -3.024,0 -2.496,4.992 -3.552,2.016 0,1.824 3.12,0"
         style="marker:none"
         id="path3446" />
      <path
         d="m 37.950802,608.70415 c -1.295998,-2.208 -3.216002,-3.36 -5.616,-3.36 -2.111997,0 -4.608003,1.104 -7.872,3.024 l 0,-2.832 -2.304,0 -6.768,2.256 0,1.92 3.12,0 0,16.56 -0.672,0.72 -2.448,0.192 0,2.16 11.76,0 0,-2.16 -2.016,-0.192 -0.672,-0.72 0,-15.84 c 1.535999,-0.576 2.880002,-0.864 4.032,-0.864 3.071997,0 4.32,1.584 4.32,4.944 l 0,11.664 -0.672,0.816 -1.968,0.192 0,2.16 11.328,0 0,-2.112 -2.16,-0.24 -0.672,-0.72 0,-15.744 c 1.583999,-0.576 2.928002,-0.912 4.128,-0.912 3.167997,0 4.416,1.584 4.416,5.184 l 0,11.472 -0.672,0.72 -2.064,0.192 0,2.16 11.808,0 0,-2.16 -2.544,-0.192 -0.624,-0.72 0,-12.864 c 0,-5.328 -2.208004,-7.968 -6.672,-7.968 -1.775998,0 -4.656003,1.056 -8.496,3.264"
         style="marker:none"
         id="path3448" />
      <path
         d="m 56.554552,606.01615 0,2.064 2.88,0.432 8.544,21.408 c -1.199998,2.87999 -2.496001,4.848 -3.744,5.856 l -4.176,-2.88 c -1.583998,0.816 -2.496,2.016 -2.496,3.408 0,1.82399 1.776003,3.552 4.128,3.552 3.167997,0 6.576003,-3.16801 8.928,-8.832 l 9.264,-22.512 2.592,-0.432 0,-2.064 -9.216,0 0,2.064 2.544,0.288 0.432,0.72 -5.232,13.536 -5.184,-13.584 0.48,-0.672 2.448,-0.288 0,-2.064 -12.192,0"
         style="marker:none"
         id="path3450" />
      <path
         d="m 100.45655,606.54415 c -2.447995,-0.816 -4.848,-1.2 -7.247998,-1.2 -5.903994,0 -9.408,3.024 -9.408,7.152 0,2.87999 1.824004,4.56 5.376,6.336 3.743997,1.87199 6.336,2.352 6.336,4.944 0,2.11199 -1.488002,3.456 -4.08,3.456 -1.439998,0 -2.784001,-0.336 -4.032,-1.008 l -0.48,-0.528 -0.528,-4.128 -2.928,0 0,7.104 c 2.975997,0.816 5.616003,1.2 7.92,1.2 6.191994,0 9.791998,-3.07201 9.791998,-7.92 0,-3.456 -2.736002,-4.75201 -7.007998,-6.816 -2.831997,-1.392 -4.464,-2.20801 -4.464,-4.224 0,-1.776 1.296003,-2.88 3.648,-2.88 1.103999,0 2.160001,0.288 3.168,0.768 l 0.576,0.528 0.48,3.6 2.879998,0 0,-6.384"
         style="marker:none"
         id="path3452" />
      <path
         d="m 106.9973,609.47215 0,13.968 c 0,2.44799 0.048,3.984 1.728,5.088 1.104,0.768 2.4,1.056 3.984,1.056 1.968,0 4.46401,-0.48 7.344,-1.536 l 0,-2.304 c -0.96,0.24 -1.968,0.336 -3.12,0.336 -3.16799,0 -3.984,-1.24801 -3.984,-4.656 l 0,-11.952 7.104,0 0,-2.88 -7.104,0 0,-5.952 -3.024,0 -2.496,4.992 -3.552,2.016 0,1.824 3.12,0"
         style="marker:none"
         id="path3454" />
      <path
         d="m 143.68955,623.39215 c -2.78399,1.77599 -5.376,2.64 -7.92,2.64 -4.75199,0 -7.728,-3.26401 -7.728,-8.784 0,-0.048 0,-0.096 0,-0.144 l 15.696,0 c 0,-0.288 0,-0.624 0,-0.912 0,-6.912 -3.696,-10.848 -9.984,-10.848 -6.91199,0 -11.856,5.04 -11.856,12.384 0,7.24799 4.70401,12.048 11.856,12.048 3.36,0 6.72001,-0.96001 9.936,-2.832 l 0,-3.552 m -6.24,-8.832 -9.168,0 c 0.144,-4.176 2.11201,-6.576 4.992,-6.576 2.64,0 4.176,2.064 4.176,6.048 0,0.192 0,0.336 0,0.528"
         style="marker:none"
         id="path3456" />
      <path
         d="m 146.63855,629.34415 13.248,0 0,-2.16 -3.408,-0.192 -0.72,-0.72 0,-13.776 c 1.488,-0.912 2.64,-1.344 3.408,-1.344 1.392,0 2.4,0.528 3.12,1.728 l 2.496,0 0.624,-6.624 c -1.056,-0.528 -2.112,-0.816 -3.168,-0.816 -0.336,0 -0.72,0.048 -1.056,0.096 -1.968,1.392 -3.888,3.024 -5.616,4.896 l 0.192,-4.896 -2.304,0 -7.056,2.256 0,1.92 3.456,0 0,16.56 -0.672,0.72 -2.544,0.192 0,2.16"
         style="marker:none"
         id="path3458" />
      <path
         d="m 173.27255,594.59215 c -1.968,0 -3.456,1.536 -3.456,3.6 0,2.11199 1.584,3.552 3.504,3.552 2.016,0 3.552,-1.48801 3.552,-3.648 0,-1.968 -1.44,-3.504 -3.6,-3.504 m 0.528,10.944 -6.768,2.256 0,1.92 3.168,0 0,16.56 -0.672,0.72 -2.592,0.192 0,2.16 12.576,0 0,-2.16 -2.688,-0.192 -0.72,-0.72 0,-20.736 -2.304,0"
         style="marker:none"
         id="path3460" />
      <path
         d="m 203.68955,623.39215 c -2.78399,1.77599 -5.376,2.64 -7.92,2.64 -4.75199,0 -7.728,-3.26401 -7.728,-8.784 0,-0.048 0,-0.096 0,-0.144 l 15.696,0 c 0,-0.288 0,-0.624 0,-0.912 0,-6.912 -3.696,-10.848 -9.984,-10.848 -6.91199,0 -11.856,5.04 -11.856,12.384 0,7.24799 4.70401,12.048 11.856,12.048 3.36,0 6.72001,-0.96001 9.936,-2.832 l 0,-3.552 m -6.24,-8.832 -9.168,0 c 0.144,-4.176 2.11201,-6.576 4.992,-6.576 2.64,0 4.176,2.064 4.176,6.048 0,0.192 0,0.336 0,0.528"
         style="marker:none"
         id="path3462" />
      <path
         d="m 224.20655,606.54415 c -2.448,-0.816 -4.848,-1.2 -7.248,-1.2 -5.90399,0 -9.408,3.024 -9.408,7.152 0,2.87999 1.82401,4.56 5.376,6.336 3.744,1.87199 6.336,2.352 6.336,4.944 0,2.11199 -1.488,3.456 -4.08,3.456 -1.44,0 -2.784,-0.336 -4.032,-1.008 l -0.48,-0.528 -0.528,-4.128 -2.928,0 0,7.104 c 2.976,0.816 5.616,1.2 7.92,1.2 6.192,0 9.792,-3.07201 9.792,-7.92 0,-3.456 -2.736,-4.75201 -7.008,-6.816 -2.83199,-1.392 -4.464,-2.20801 -4.464,-4.224 0,-1.776 1.296,-2.88 3.648,-2.88 1.104,0 2.16,0.288 3.168,0.768 l 0.576,0.528 0.48,3.6 2.88,0 0,-6.384"
         style="marker:none"
         id="path3464" />
      <path
         d="m 228.2033,637.74415 c 5.52,-0.624 9.072,-4.65601 9.072,-9.504 0,-3.168 -1.728,-5.088 -4.416,-5.088 -1.968,0 -3.312,1.296 -3.312,3.264 0,1.056 0.336,1.872 1.008,2.592 l 2.976,0 c 0,0.144 0,0.336 0,0.48 0,3.31199 -1.872,5.424 -5.328,6.048 l 0,2.208"
         style="marker:none"
         id="path3466" />
      <path
         d="m 273.51905,606.54415 c -2.448,-0.816 -4.848,-1.2 -7.248,-1.2 -5.90399,0 -9.408,3.024 -9.408,7.152 0,2.87999 1.82401,4.56 5.376,6.336 3.744,1.87199 6.336,2.352 6.336,4.944 0,2.11199 -1.488,3.456 -4.08,3.456 -1.44,0 -2.784,-0.336 -4.032,-1.008 l -0.48,-0.528 -0.528,-4.128 -2.928,0 0,7.104 c 2.976,0.816 5.616,1.2 7.92,1.2 6.192,0 9.792,-3.07201 9.792,-7.92 0,-3.456 -2.736,-4.75201 -7.008,-6.816 -2.83199,-1.392 -4.464,-2.20801 -4.464,-4.224 0,-1.776 1.296,-2.88 3.648,-2.88 1.104,0 2.16,0.288 3.168,0.768 l 0.576,0.528 0.48,3.6 2.88,0 0,-6.384"
         style="marker:none"
         id="path3468" />
      <path
         d="m 298.2998,627.18415 0,-3.408 c -2.352,1.44 -4.608,2.16 -6.672,2.16 -4.46399,0 -7.392,-3.40801 -7.392,-9.168 0,-5.472 2.92801,-8.928 6.288,-8.928 0.336,0 0.72,0.048 1.2,0.144 l 0,5.088 c 0.864,0.624 1.776,0.912 2.832,0.912 2.064,0 3.456,-1.39201 3.456,-3.264 0,-2.928 -2.976,-5.232 -7.92,-5.232 -7.19999,0 -12.384,5.136 -12.384,12.432 0,6.95999 4.56001,11.808 11.52,11.808 3.072,0 6.00001,-0.864 9.072,-2.544"
         style="marker:none"
         id="path3470" />
      <path
         d="m 315.3668,626.60815 0.624,2.736 8.544,0 0,-2.112 -2.544,-0.24 -0.624,-0.672 0,-12.432 c 0,-6.144 -2.256,-8.496 -8.976,-8.496 -6.33599,0 -10.464,2.832 -10.464,5.568 0,1.296 0.768,1.776 2.208,1.776 l 4.416,0 0,-4.512 c 0.864,-0.192 1.584,-0.288 2.304,-0.288 3.168,0 4.56,1.536 4.56,4.992 l 0,1.44 c -10.03199,2.25599 -14.592,3.648 -14.592,9.168 0,3.64799 2.59201,6.24 6.288,6.24 2.592,0 5.18401,-1.10401 8.256,-3.168 m 0,-1.968 c -1.872,0.96 -3.408,1.44 -4.656,1.44 -2.208,0 -3.552,-1.39201 -3.552,-3.6 0,-3.168 2.54401,-4.416 8.208,-5.664 l 0,7.824"
         style="marker:none"
         id="path3472" />
      <path
         d="m 326.54705,629.34415 11.856,0 0,-2.16 -2.112,-0.192 -0.672,-0.72 0,-15.84 c 1.824,-0.528 3.36,-0.816 4.56,-0.816 3.024,0 4.32,1.632 4.32,5.184 l 0,11.472 -0.672,0.72 -2.064,0.192 0,2.16 11.76,0 0,-2.16 -2.544,-0.192 -0.624,-0.72 0,-12.864 c 0,-5.328 -2.112,-7.968 -6.528,-7.968 -2.112,0 -4.8,1.056 -8.208,2.928 l 0,-2.832 -2.304,0 -6.912,2.256 0,1.92 3.264,0 0,16.56 -0.672,0.72 -2.448,0.192 0,2.16"
         style="marker:none"
         id="path3474" />
      <path
         d="m 372.1223,609.47215 0,13.968 c 0,2.44799 0.048,3.984 1.728,5.088 1.104,0.768 2.4,1.056 3.984,1.056 1.968,0 4.46401,-0.48 7.344,-1.536 l 0,-2.304 c -0.96,0.24 -1.968,0.336 -3.12,0.336 -3.16799,0 -3.984,-1.24801 -3.984,-4.656 l 0,-11.952 7.104,0 0,-2.88 -7.104,0 0,-5.952 -3.024,0 -2.496,4.992 -3.552,2.016 0,1.824 3.12,0"
         style="marker:none"
         id="path3476" />
      <path
         d="m 393.11855,593.87215 -7.104,2.256 0,1.872 3.504,0 0,28.272 -0.672,0.72 -2.448,0.192 0,2.16 11.856,0 0,-2.16 -2.112,-0.192 -0.72,-0.72 0,-15.84 c 1.824,-0.528 3.36,-0.816 4.608,-0.816 2.976,0 4.32,1.632 4.32,5.184 l 0,11.472 -0.672,0.72 -2.064,0.192 0,2.16 11.76,0 0,-2.16 -2.544,-0.192 -0.624,-0.72 0,-12.864 c 0,-5.328 -2.16,-7.968 -6.576,-7.968 -2.16,0 -4.752,1.056 -8.208,2.928 l 0,-14.496 -2.304,0"
         style="marker:none"
         id="path3478" />
      <path
         d="m 437.50205,623.39215 c -2.78399,1.77599 -5.376,2.64 -7.92,2.64 -4.75199,0 -7.728,-3.26401 -7.728,-8.784 0,-0.048 0,-0.096 0,-0.144 l 15.696,0 c 0,-0.288 0,-0.624 0,-0.912 0,-6.912 -3.696,-10.848 -9.984,-10.848 -6.91199,0 -11.856,5.04 -11.856,12.384 0,7.24799 4.70401,12.048 11.856,12.048 3.36,0 6.72001,-0.96001 9.936,-2.832 l 0,-3.552 m -6.24,-8.832 -9.168,0 c 0.144,-4.176 2.11201,-6.576 4.992,-6.576 2.64,0 4.176,2.064 4.176,6.048 0,0.192 0,0.336 0,0.528"
         style="marker:none"
         id="path3480" />
      <path
         d="m 475.2998,627.18415 0,-3.408 c -2.352,1.44 -4.608,2.16 -6.672,2.16 -4.46399,0 -7.392,-3.40801 -7.392,-9.168 0,-5.472 2.92801,-8.928 6.288,-8.928 0.336,0 0.72,0.048 1.2,0.144 l 0,5.088 c 0.864,0.624 1.776,0.912 2.832,0.912 2.064,0 3.456,-1.39201 3.456,-3.264 0,-2.928 -2.976,-5.232 -7.92,-5.232 -7.19999,0 -12.384,5.136 -12.384,12.432 0,6.95999 4.56001,11.808 11.52,11.808 3.072,0 6.00001,-0.864 9.072,-2.544"
         style="marker:none"
         id="path3482" />
      <path
         d="m 490.1108,605.39215 c -7.53599,0 -12.432,4.896 -12.432,12.288 0,7.24799 4.84801,12.048 12.048,12.048 7.58399,0 12.432,-4.84801 12.432,-11.952 0,-7.632 -4.704,-12.384 -12.048,-12.384 m -0.192,2.544 c 3.408,0 5.616,3.408 5.616,9.696 0,6.23999 -2.112,9.552 -5.664,9.552 -3.35999,0 -5.52,-3.40801 -5.52,-9.696 0,-6.192 2.16001,-9.552 5.568,-9.552"
         style="marker:none"
         id="path3484" />
      <path
         d="m 522.23105,598.04815 0,7.776 c -1.728,-0.336 -3.216,-0.48 -4.512,-0.48 -7.29599,0 -12.384,5.136 -12.384,12.864 0,6.91199 3.93601,11.568 9.312,11.568 2.448,0 4.84801,-1.10401 7.584,-3.12 l 0,2.688 8.976,0 0,-2.112 -2.448,-0.192 -0.672,-0.768 0,-32.4 -2.208,0 -7.152,2.256 0,1.92 3.504,0 m 0,26.736 c -1.536,0.576 -2.88,0.912 -4.032,0.912 -3.98399,0 -6.432,-3.12001 -6.432,-8.496 0,-5.712 2.83201,-9.168 6.912,-9.168 1.008,0 2.16,0.24 3.552,0.72 l 0,16.032"
         style="marker:none"
         id="path3486" />
      <path
         d="m 555.7208,623.39215 c -2.78399,1.77599 -5.376,2.64 -7.92,2.64 -4.75199,0 -7.728,-3.26401 -7.728,-8.784 0,-0.048 0,-0.096 0,-0.144 l 15.696,0 c 0,-0.288 0,-0.624 0,-0.912 0,-6.912 -3.696,-10.848 -9.984,-10.848 -6.91199,0 -11.856,5.04 -11.856,12.384 0,7.24799 4.70401,12.048 11.856,12.048 3.36,0 6.72001,-0.96001 9.936,-2.832 l 0,-3.552 m -6.24,-8.832 -9.168,0 c 0.144,-4.176 2.11201,-6.576 4.992,-6.576 2.64,0 4.176,2.064 4.176,6.048 0,0.192 0,0.336 0,0.528"
         style="marker:none"
         id="path3488" />
      <path
         d="m 578.78255,593.87215 -7.104,2.256 0,1.872 3.456,0 0,31.296 5.328,0.096 c 0.432,0 0.864,0 1.296,0 3.696,0 6.384,-0.384 8.16,-1.152 4.944,-2.208 7.584,-6.33601 7.584,-11.904 0,-6.48 -3.984,-10.896 -9.456,-10.896 -2.112,0 -4.368,0.72 -6.96,2.16 l 0,-13.728 -2.304,0 m 2.304,32.88 0,-17.184 c 1.152,-0.24 2.16,-0.384 3.024,-0.384 4.416,0 6.96,2.928 6.96,8.4 0,6.28799 -2.64,9.216 -8.448,9.216 -0.48,0 -1.008,0 -1.536,-0.048"
         style="marker:none"
         id="path3490" />
      <path
         d="m 622.4708,623.39215 c -2.78399,1.77599 -5.376,2.64 -7.92,2.64 -4.75199,0 -7.728,-3.26401 -7.728,-8.784 0,-0.048 0,-0.096 0,-0.144 l 15.696,0 c 0,-0.288 0,-0.624 0,-0.912 0,-6.912 -3.696,-10.848 -9.984,-10.848 -6.91199,0 -11.856,5.04 -11.856,12.384 0,7.24799 4.70401,12.048 11.856,12.048 3.36,0 6.72001,-0.96001 9.936,-2.832 l 0,-3.552 m -6.24,-8.832 -9.168,0 c 0.144,-4.176 2.11201,-6.576 4.992,-6.576 2.64,0 4.176,2.064 4.176,6.048 0,0.192 0,0.336 0,0.528"
         style="marker:none"
         id="path3492" />
      <path
         d="m 625.1318,629.34415 12.864,0 0,-2.112 -2.784,-0.288 -0.72,-0.768 0,-32.304 -2.112,0 -7.248,2.304 0,1.872 3.456,0 0,28.224 -0.672,0.672 -2.784,0.288 0,2.112"
         style="marker:none"
         id="path3494" />
      <path
         d="m 652.8608,605.39215 c -7.53599,0 -12.432,4.896 -12.432,12.288 0,7.24799 4.84801,12.048 12.048,12.048 7.58399,0 12.432,-4.84801 12.432,-11.952 0,-7.632 -4.704,-12.384 -12.048,-12.384 m -0.192,2.544 c 3.408,0 5.616,3.408 5.616,9.696 0,6.23999 -2.112,9.552 -5.664,9.552 -3.35999,0 -5.52,-3.40801 -5.52,-9.696 0,-6.192 2.16001,-9.552 5.568,-9.552"
         style="marker:none"
         id="path3496" />
      <path
         d="m 666.26105,605.96815 0,2.208 2.88,0.288 6.192,20.88 4.8,0 5.712,-17.232 5.328,17.232 4.848,0 6.528,-20.832 2.688,-0.336 0,-2.208 -9.072,0 0,2.208 2.544,0.288 0.336,0.672 -4.224,13.872 -5.232,-17.04 -4.8,0 -5.616,17.04 -3.888,-13.824 0.528,-0.672 2.352,-0.336 0,-2.208 -11.904,0"
         style="marker:none"
         id="path3498" />
      <path
         d="m 722.65355,609.47215 0,13.968 c 0,2.44799 0.048,3.984 1.728,5.088 1.104,0.768 2.4,1.056 3.984,1.056 1.968,0 4.46401,-0.48 7.344,-1.536 l 0,-2.304 c -0.96,0.24 -1.968,0.336 -3.12,0.336 -3.16799,0 -3.984,-1.24801 -3.984,-4.656 l 0,-11.952 7.104,0 0,-2.88 -7.104,0 0,-5.952 -3.024,0 -2.496,4.992 -3.552,2.016 0,1.824 3.12,0"
         style="marker:none"
         id="path3500" />
      <path
         d="m 749.9858,605.39215 c -7.53599,0 -12.432,4.896 -12.432,12.288 0,7.24799 4.84801,12.048 12.048,12.048 7.58399,0 12.432,-4.84801 12.432,-11.952 0,-7.632 -4.704,-12.384 -12.048,-12.384 m -0.192,2.544 c 3.408,0 5.616,3.408 5.616,9.696 0,6.23999 -2.112,9.552 -5.664,9.552 -3.35999,0 -5.52,-3.40801 -5.52,-9.696 0,-6.192 2.16001,-9.552 5.568,-9.552"
         style="marker:none"
         id="path3502" />
      <path
         d="m 778.5068,629.34415 12.864,0 0,-2.112 -2.784,-0.288 -0.72,-0.768 0,-32.304 -2.112,0 -7.248,2.304 0,1.872 3.456,0 0,28.224 -0.672,0.672 -2.784,0.288 0,2.112"
         style="marker:none"
         id="path3504" />
      <path
         d="m 815.5958,623.39215 c -2.78399,1.77599 -5.376,2.64 -7.92,2.64 -4.75199,0 -7.728,-3.26401 -7.728,-8.784 0,-0.048 0,-0.096 0,-0.144 l 15.696,0 c 0,-0.288 0,-0.624 0,-0.912 0,-6.912 -3.696,-10.848 -9.984,-10.848 -6.91199,0 -11.856,5.04 -11.856,12.384 0,7.24799 4.70401,12.048 11.856,12.048 3.36,0 6.72001,-0.96001 9.936,-2.832 l 0,-3.552 m -6.24,-8.832 -9.168,0 c 0.144,-4.176 2.11201,-6.576 4.992,-6.576 2.64,0 4.176,2.064 4.176,6.048 0,0.192 0,0.336 0,0.528"
         style="marker:none"
         id="path3506" />
      <path
         d="m 833.6168,626.60815 0.624,2.736 8.544,0 0,-2.112 -2.544,-0.24 -0.624,-0.672 0,-12.432 c 0,-6.144 -2.256,-8.496 -8.976,-8.496 -6.33599,0 -10.464,2.832 -10.464,5.568 0,1.296 0.768,1.776 2.208,1.776 l 4.416,0 0,-4.512 c 0.864,-0.192 1.584,-0.288 2.304,-0.288 3.168,0 4.56,1.536 4.56,4.992 l 0,1.44 c -10.03199,2.25599 -14.592,3.648 -14.592,9.168 0,3.64799 2.59201,6.24 6.288,6.24 2.592,0 5.18401,-1.10401 8.256,-3.168 m 0,-1.968 c -1.872,0.96 -3.408,1.44 -4.656,1.44 -2.208,0 -3.552,-1.39201 -3.552,-3.6 0,-3.168 2.54401,-4.416 8.208,-5.664 l 0,7.824"
         style="marker:none"
         id="path3508" />
      <path
         d="m 844.70105,629.34415 13.248,0 0,-2.16 -3.408,-0.192 -0.72,-0.72 0,-13.776 c 1.488,-0.912 2.64,-1.344 3.408,-1.344 1.392,0 2.4,0.528 3.12,1.728 l 2.496,0 0.624,-6.624 c -1.056,-0.528 -2.112,-0.816 -3.168,-0.816 -0.336,0 -0.72,0.048 -1.056,0.096 -1.968,1.392 -3.888,3.024 -5.616,4.896 l 0.192,-4.896 -2.304,0 -7.056,2.256 0,1.92 3.456,0 0,16.56 -0.672,0.72 -2.544,0.192 0,2.16"
         style="marker:none"
         id="path3510" />
      <path
         d="m 865.04705,629.34415 11.856,0 0,-2.16 -2.112,-0.192 -0.672,-0.72 0,-15.84 c 1.824,-0.528 3.36,-0.816 4.56,-0.816 3.024,0 4.32,1.632 4.32,5.184 l 0,11.472 -0.672,0.72 -2.064,0.192 0,2.16 11.76,0 0,-2.16 -2.544,-0.192 -0.624,-0.72 0,-12.864 c 0,-5.328 -2.112,-7.968 -6.528,-7.968 -2.112,0 -4.8,1.056 -8.208,2.928 l 0,-2.832 -2.304,0 -6.912,2.256 0,1.92 3.264,0 0,16.56 -0.672,0.72 -2.448,0.192 0,2.16"
         style="marker:none"
         id="path3512" />
      <path
         d="m 457.0133,656.70415 c -1.296,-2.208 -3.216,-3.36 -5.616,-3.36 -2.112,0 -4.608,1.104 -7.872,3.024 l 0,-2.832 -2.304,0 -6.768,2.256 0,1.92 3.12,0 0,16.56 -0.672,0.72 -2.448,0.192 0,2.16 11.76,0 0,-2.16 -2.016,-0.192 -0.672,-0.72 0,-15.84 c 1.536,-0.576 2.88,-0.864 4.032,-0.864 3.072,0 4.32,1.584 4.32,4.944 l 0,11.664 -0.672,0.816 -1.968,0.192 0,2.16 11.328,0 0,-2.112 -2.16,-0.24 -0.672,-0.72 0,-15.744 c 1.584,-0.576 2.928,-0.912 4.128,-0.912 3.168,0 4.416,1.584 4.416,5.184 l 0,11.472 -0.672,0.72 -2.064,0.192 0,2.16 11.808,0 0,-2.16 -2.544,-0.192 -0.624,-0.72 0,-12.864 c 0,-5.328 -2.208,-7.968 -6.672,-7.968 -1.776,0 -4.656,1.056 -8.496,3.264"
         style="marker:none"
         id="path3514" />
      <path
         d="m 490.01705,653.39215 c -7.53599,0 -12.432,4.896 -12.432,12.288 0,7.24799 4.84801,12.048 12.048,12.048 7.58399,0 12.432,-4.84801 12.432,-11.952 0,-7.632 -4.704,-12.384 -12.048,-12.384 m -0.192,2.544 c 3.408,0 5.616,3.408 5.616,9.696 0,6.23999 -2.112,9.552 -5.664,9.552 -3.35999,0 -5.52,-3.40801 -5.52,-9.696 0,-6.192 2.16001,-9.552 5.568,-9.552"
         style="marker:none"
         id="path3516" />
      <path
         d="m 504.8573,677.34415 13.248,0 0,-2.16 -3.408,-0.192 -0.72,-0.72 0,-13.776 c 1.488,-0.912 2.64,-1.344 3.408,-1.344 1.392,0 2.4,0.528 3.12,1.728 l 2.496,0 0.624,-6.624 c -1.056,-0.528 -2.112,-0.816 -3.168,-0.816 -0.336,0 -0.72,0.048 -1.056,0.096 -1.968,1.392 -3.888,3.024 -5.616,4.896 l 0.192,-4.896 -2.304,0 -7.056,2.256 0,1.92 3.456,0 0,16.56 -0.672,0.72 -2.544,0.192 0,2.16"
         style="marker:none"
         id="path3518" />
      <path
         d="m 547.2833,671.39215 c -2.78399,1.77599 -5.376,2.64 -7.92,2.64 -4.75199,0 -7.728,-3.26401 -7.728,-8.784 0,-0.048 0,-0.096 0,-0.144 l 15.696,0 c 0,-0.288 0,-0.624 0,-0.912 0,-6.912 -3.696,-10.848 -9.984,-10.848 -6.91199,0 -11.856,5.04 -11.856,12.384 0,7.24799 4.70401,12.048 11.856,12.048 3.36,0 6.72001,-0.96001 9.936,-2.832 l 0,-3.552 m -6.24,-8.832 -9.168,0 c 0.144,-4.176 2.11201,-6.576 4.992,-6.576 2.64,0 4.176,2.064 4.176,6.048 0,0.192 0,0.336 0,0.528"
         style="marker:none"
         id="path3520" />
      <path
         d="m 557.0003,670.38415 c -1.968,0 -3.6,1.632 -3.6,3.696 0,2.01599 1.68,3.6 3.6,3.6 1.968,0 3.6,-1.58401 3.6,-3.6 0,-2.064 -1.632,-3.696 -3.6,-3.696 m 3.456,-19.68 c 0.144,-1.008 0.192,-1.776 0.192,-2.256 0,-2.544 -1.392,-3.936 -3.648,-3.936 -2.256,0 -3.648,1.344 -3.648,3.792 0,0.48 0.096,1.344 0.24,2.496 l 2.16,17.04 2.544,0 2.16,-17.136"
         style="marker:none"
         id="path3522" />
    </g>
    <text
       xml:space="preserve"
       style="font-size:64px;font-style:normal;font-variant:normal;font-weight:normal;font-stretch:normal;text-indent:0;text-align:start;text-decoration:none;line-height:100%;letter-spacing:normal;word-spacing:normal;text-transform:none;direction:ltr;block-progression:tb;writing-mode:lr-tb;text-anchor:start;color:#000000;fill:#000000;fill-opacity:1;fill-rule:evenodd;stroke:none;stroke-width:1;marker:none;visibility:visible;display:inline;overflow:visible;enable-background:accumulate;font-family:Bitstream Charter;-inkscape-font-specification:Bitstream Charter"
       x="16.121838"
       y="363.43814"
       id="text3922"
       sodipodi:linespacing="100%"><tspan
         sodipodi:role="line"
         id="tspan3924"
         x="16.121838"
         y="363.43814">Mapping Experts Wanted!</tspan></text>
    <image
       y="795.50507"
       x="421.71429"
       id="image3216"
       xlink:href="file:///home/novalis/notes/puzzles/119/post/solution/Cheney.png"
       height="168"
       width="168" />
    <text
       xml:space="preserve"
       style="font-size:28px;font-style:normal;font-variant:normal;font-weight:bold;font-stretch:normal;text-indent:0;text-align:start;text-decoration:none;line-height:100%;letter-spacing:normal;word-spacing:normal;text-transform:none;direction:ltr;block-progression:tb;writing-mode:lr-tb;text-anchor:start;color:#000000;fill:#000000;fill-opacity:1;stroke:none;stroke-width:5;marker:none;visibility:visible;display:inline;overflow:visible;enable-background:accumulate;font-family:Bitstream Charter;-inkscape-font-specification:Bitstream Charter Bold"
       x="430"
       y="1033.7908"
       id="text3524"
       sodipodi:linespacing="100%"><tspan
         sodipodi:role="line"
         x="430"
         y="1033.7908"
         id="tspan3528">Do not remove until Jan 18, 2012</tspan></text>
    <text
       xml:space="preserve"
       style="font-size:10px;font-style:normal;font-variant:normal;font-weight:bold;font-stretch:normal;text-indent:0;text-align:start;text-decoration:none;line-height:100%;letter-spacing:normal;word-spacing:normal;text-transform:none;direction:ltr;block-progression:tb;writing-mode:lr;text-anchor:start;color:#000000;fill:#000000;fill-opacity:1;fill-rule:evenodd;stroke:none;stroke-width:5;marker:none;visibility:visible;display:inline;overflow:visible;enable-background:accumulate;font-family:Bitstream Charter;-inkscape-font-specification:Bitstream Charter Bold"
       x="972.85712"
       y="752.14288"
       id="text4300"
       sodipodi:linespacing="100%"
       transform="translate(0,287.36218)"><tspan
         sodipodi:role="line"
         id="tspan4302"
         x="972.85712"
         y="752.14288">3</tspan></text>
  </g>
</svg>
